  0
SECTION
  2
HEADER
  9
$ACADVER
  1
AC1009
  9
$DWGCODEPAGE
  3
ansi_1252
  9
$INSBASE
 10
0.0
 20
0.0
 30
0.0
  9
$EXTMIN
 10
1.000000000000000E+20
 20
1.000000000000000E+20
 30
1.000000000000000E+20
  9
$EXTMAX
 10
-1.000000000000000E+20
 20
-1.000000000000000E+20
 30
-1.000000000000000E+20
  9
$LIMMIN
 10
0.0
 20
0.0
  9
$LIMMAX
 10
12.0
 20
9.0
  9
$ORTHOMODE
 70
     0
  9
$REGENMODE
 70
     1
  9
$FILLMODE
 70
     1
  9
$QTEXTMODE
 70
     0
  9
$MIRRTEXT
 70
     1
  9
$DRAGMODE
 70
     2
  9
$LTSCALE
 40
1.0
  9
$OSMODE
 70
    37
  9
$ATTMODE
 70
     1
  9
$TEXTSIZE
 40
0.2
  9
$TRACEWID
 40
0.05
  9
$TEXTSTYLE
  7
STANDARD
  9
$CLAYER
  8
0
  9
$CELTYPE
  6
BYLAYER
  9
$CECOLOR
 62
   256
  9
$DIMSCALE
 40
1.0
  9
$DIMASZ
 40
0.18
  9
$DIMEXO
 40
0.0625
  9
$DIMDLI
 40
0.38
  9
$DIMRND
 40
0.0
  9
$DIMDLE
 40
0.0
  9
$DIMEXE
 40
0.18
  9
$DIMTP
 40
0.0
  9
$DIMTM
 40
0.0
  9
$DIMTXT
 40
0.18
  9
$DIMCEN
 40
0.09
  9
$DIMTSZ
 40
0.0
  9
$DIMTOL
 70
     0
  9
$DIMLIM
 70
     0
  9
$DIMTIH
 70
     1
  9
$DIMTOH
 70
     1
  9
$DIMSE1
 70
     0
  9
$DIMSE2
 70
     0
  9
$DIMTAD
 70
     0
  9
$DIMZIN
 70
     0
  9
$DIMBLK
  1

  9
$DIMASO
 70
     1
  9
$DIMSHO
 70
     1
  9
$DIMPOST
  1

  9
$DIMAPOST
  1

  9
$DIMALT
 70
     0
  9
$DIMALTD
 70
     2
  9
$DIMALTF
 40
25.4
  9
$DIMLFAC
 40
1.0
  9
$DIMTOFL
 70
     0
  9
$DIMTVP
 40
0.0
  9
$DIMTIX
 70
     0
  9
$DIMSOXD
 70
     0
  9
$DIMSAH
 70
     0
  9
$DIMBLK1
  1

  9
$DIMBLK2
  1

  9
$DIMSTYLE
  2
STANDARD
  9
$DIMCLRD
 70
     0
  9
$DIMCLRE
 70
     0
  9
$DIMCLRT
 70
     0
  9
$DIMTFAC
 40
1.0
  9
$DIMGAP
 40
0.09
  9
$LUNITS
 70
     2
  9
$LUPREC
 70
     4
  9
$SKETCHINC
 40
0.1
  9
$FILLETRAD
 40
0.5
  9
$AUNITS
 70
     0
  9
$AUPREC
 70
     0
  9
$MENU
  1
.
  9
$ELEVATION
 40
0.0
  9
$PELEVATION
 40
0.0
  9
$THICKNESS
 40
0.0
  9
$LIMCHECK
 70
     0
  9
$CHAMFERA
 40
0.0
  9
$CHAMFERB
 40
0.0
  9
$SKPOLY
 70
     0
  9
$TDCREATE
 40
2459871.878882847
  9
$TDUPDATE
 40
2459871.878882871
  9
$TDINDWG
 40
0.0000000116
  9
$TDUSRTIMER
 40
0.0000000116
  9
$USRTIMER
 70
     1
  9
$ANGBASE
 50
0.0
  9
$ANGDIR
 70
     0
  9
$PDMODE
 70
     0
  9
$PDSIZE
 40
0.0
  9
$PLINEWID
 40
0.0
  9
$COORDS
 70
     1
  9
$SPLFRAME
 70
     0
  9
$SPLINETYPE
 70
     6
  9
$SPLINESEGS
 70
     8
  9
$ATTDIA
 70
     0
  9
$ATTREQ
 70
     1
  9
$HANDLING
 70
     1
  9
$HANDSEED
  5
CB
  9
$SURFTAB1
 70
     6
  9
$SURFTAB2
 70
     6
  9
$SURFTYPE
 70
     6
  9
$SURFU
 70
     6
  9
$SURFV
 70
     6
  9
$UCSNAME
  2

  9
$UCSORG
 10
0.0
 20
0.0
 30
0.0
  9
$UCSXDIR
 10
1.0
 20
0.0
 30
0.0
  9
$UCSYDIR
 10
0.0
 20
1.0
 30
0.0
  9
$PUCSNAME
  2

  9
$PUCSORG
 10
0.0
 20
0.0
 30
0.0
  9
$PUCSXDIR
 10
1.0
 20
0.0
 30
0.0
  9
$PUCSYDIR
 10
0.0
 20
1.0
 30
0.0
  9
$USERI1
 70
     0
  9
$USERI2
 70
     0
  9
$USERI3
 70
     0
  9
$USERI4
 70
     0
  9
$USERI5
 70
     0
  9
$USERR1
 40
0.0
  9
$USERR2
 40
0.0
  9
$USERR3
 40
0.0
  9
$USERR4
 40
0.0
  9
$USERR5
 40
0.0
  9
$WORLDVIEW
 70
     1
  9
$SHADEDGE
 70
     3
  9
$SHADEDIF
 70
    70
  9
$TILEMODE
 70
     1
  9
$MAXACTVP
 70
    64
  9
$PLIMCHECK
 70
     0
  9
$PEXTMIN
 10
1.000000000000000E+20
 20
1.000000000000000E+20
 30
1.000000000000000E+20
  9
$PEXTMAX
 10
-1.000000000000000E+20
 20
-1.000000000000000E+20
 30
-1.000000000000000E+20
  9
$PLIMMIN
 10
0.0
 20
0.0
  9
$PLIMMAX
 10
12.0
 20
9.0
  9
$UNITMODE
 70
     0
  9
$VISRETAIN
 70
     1
  9
$PLINEGEN
 70
     0
  9
$PSLTSCALE
 70
     1
  0
ENDSEC
  0
SECTION
  2
TABLES
  0
TABLE
  2
VPORT
 70
     1
  0
VPORT
  2
*ACTIVE
 70
     0
 10
0.0
 20
0.0
 11
1.0
 21
1.0
 12
0.0
 22
0.0
 13
0.0
 23
0.0
 14
0.5
 24
0.5
 15
0.5
 25
0.5
 16
0.0
 26
0.0
 36
1.0
 17
0.0
 27
0.0
 37
-1000.0
 40
61.86297743012616
 41
1.695652173913043
 42
50.0
 43
2341.693636411448
 44
2890.010000059069
 50
0.0
 51
0.0
 71
     0
 72
   100
 73
     1
 74
     3
 75
     0
 76
     0
 77
     0
 78
     0
  0
ENDTAB
  0
TABLE
  2
LTYPE
 70
     1
  0
LTYPE
  2
CONTINUOUS
 70
     0
  3
Solid line
 72
    65
 73
     0
 40
0.0
  0
ENDTAB
  0
TABLE
  2
LAYER
 70
     3
  0
LAYER
  2
0
 70
     0
 62
     7
  6
CONTINUOUS
  0
LAYER
  2
PROFILEEDGES
 70
     0
 62
     7
  6
CONTINUOUS
  0
LAYER
  2
SECTIONCUTEDGES
 70
     0
 62
     7
  6
CONTINUOUS
  0
ENDTAB
  0
TABLE
  2
STYLE
 70
     1
  0
STYLE
  2
STANDARD
 70
     0
 40
0.0
 41
1.0
 50
0.0
 71
     0
 42
0.2
  3
txt
  4

  0
ENDTAB
  0
TABLE
  2
VIEW
 70
     0
  0
ENDTAB
  0
TABLE
  2
UCS
 70
     0
  0
ENDTAB
  0
TABLE
  2
APPID
 70
     1
  0
APPID
  2
ACAD
 70
     0
  0
ENDTAB
  0
TABLE
  2
DIMSTYLE
 70
     1
  0
DIMSTYLE
  2
STANDARD
 70
     0
  3

  4

  5

  6

  7

 40
1.0
 41
0.18
 42
0.0625
 43
0.38
 44
0.18
 45
0.0
 46
0.0
 47
0.0
 48
0.0
140
0.18
141
0.09
142
0.0
143
25.4
144
1.0
145
0.0
146
1.0
147
0.09
 71
     0
 72
     0
 73
     1
 74
     1
 75
     0
 76
     0
 77
     0
 78
     0
170
     0
171
     2
172
     0
173
     0
174
     0
175
     0
176
     0
177
     0
178
     0
  0
ENDTAB
  0
ENDSEC
  0
SECTION
  2
BLOCKS
  0
BLOCK
  8
0
  2
$MODEL_SPACE
 70
     0
 10
0.0
 20
0.0
 30
0.0
  3
$MODEL_SPACE
  1

  0
ENDBLK
  5
21
  8
0
  0
BLOCK
 67
     1
  8
0
  2
$PAPER_SPACE
 70
     0
 10
0.0
 20
0.0
 30
0.0
  3
$PAPER_SPACE
  1

  0
ENDBLK
  5
1D
 67
     1
  8
0
  0
ENDSEC
  0
SECTION
  2
ENTITIES
  0
LINE
  5
70
  8
0
 10
2.39348465057704
 20
-19.36025987884537
 30
0.0
 11
2.39348465058493
 21
-14.9202598788441
 31
0.0
  0
LINE
  5
71
  8
0
 10
8.08782947726255
 20
-14.92025987885422
 30
0.0
 11
8.087829477254651
 21
-19.36025987885549
 31
0.0
  0
LINE
  5
72
  8
0
 10
-13.43014816967925
 20
-7.168892699093612
 30
0.0
 11
-8.990148169677978
 21
-7.168892699093612
 31
0.0
  0
LINE
  5
73
  8
0
 10
-6.818125816624458
 20
-14.92025987882773
 30
0.0
 11
-6.818125816632353
 21
-19.360259878829
 31
0.0
  0
LINE
  5
74
  8
0
 10
-13.43014816967925
 20
-3.651627058561846
 30
0.0
 11
-8.990148169677978
 21
-3.651627058561846
 31
0.0
  0
LINE
  5
75
  8
0
 10
-8.990148169677978
 20
-12.86323752577123
 30
0.0
 11
-13.43014816967925
 21
-12.86323752577123
 31
0.0
  0
LINE
  5
76
  8
0
 10
-8.990148169677978
 20
2.042717768115778
 30
0.0
 11
-13.43014816967925
 21
2.042717768115778
 31
0.0
  0
LINE
  5
77
  8
0
 10
-6.818125816621625
 20
4.09974012117385
 30
0.0
 11
-6.818125816621152
 21
8.539740121175123
 31
0.0
  0
LINE
  5
78
  8
0
 10
2.393484650588235
 20
8.539740121174148
 30
0.0
 11
2.393484650587767
 21
4.09974012117288
 31
0.0
  0
LINE
  5
79
  8
0
 10
8.087829477265387
 20
4.099740121172271
 30
0.0
 11
8.087829477265858
 21
8.539740121173544
 31
0.0
  0
LINE
  5
7A
  8
0
 10
-1.123780989943534
 20
8.53974012117452
 30
0.0
 11
-1.123780989944003
 21
4.099740121173252
 31
0.0
  0
LINE
  5
7B
  8
0
 10
-1.123780989954735
 20
-19.36025987883912
 30
0.0
 11
-1.123780989946845
 21
-14.92025987883785
 31
0.0
  0
LINE
  5
7C
  8
0
 10
10.25985183032203
 20
2.04271776811364
 30
0.0
 11
14.6998518303233
 21
2.042717768107323
 31
0.0
  0
LINE
  5
7D
  8
0
 10
10.25985183030082
 20
-12.86323752577337
 30
0.0
 11
14.69985183030209
 21
-12.86323752577969
 31
0.0
  0
LINE
  5
7E
  8
0
 10
14.6998518303152
 20
-3.651627058570297
 30
0.0
 11
10.25985183031393
 21
-3.65162705856398
 31
0.0
  0
LINE
  5
7F
  8
0
 10
14.69985183031019
 20
-7.168892699102067
 30
0.0
 11
10.25985183030892
 21
-7.16889269909575
 31
0.0
  0
LINE
  5
80
  8
0
 10
-1.123780989954735
 20
-19.36025987883912
 30
0.0
 11
2.39348465057704
 21
-19.36025987884537
 31
0.0
  0
LINE
  5
81
  8
0
 10
14.6998518303233
 20
2.042717768107323
 30
0.0
 11
14.69985183031994
 21
4.099740121172271
 31
0.0
  0
LINE
  5
82
  8
0
 10
14.69985183031019
 20
-7.168892699102067
 30
0.0
 11
14.6998518303152
 21
-3.651627058570297
 31
0.0
  0
LINE
  5
83
  8
0
 10
-6.818125816621152
 20
8.539740121175123
 30
0.0
 11
-8.990148169677981
 21
8.539740121174864
 31
0.0
  0
LINE
  5
84
  8
0
 10
2.393484650588235
 20
8.539740121174148
 30
0.0
 11
-1.123780989943534
 21
8.53974012117452
 31
0.0
  0
LINE
  5
85
  8
0
 10
8.087829477254651
 20
-19.36025987885549
 30
0.0
 11
10.25985183032202
 21
-19.36025987885114
 31
0.0
  0
LINE
  5
86
  8
0
 10
-13.43014816967925
 20
-12.86323752577123
 30
0.0
 11
-13.43014816967925
 21
-14.92025987882773
 31
0.0
  0
LINE
  5
87
  8
0
 10
-13.43014816967925
 20
4.099740121172271
 30
0.0
 11
-13.43014816967925
 21
2.042717768115778
 31
0.0
  0
LINE
  5
88
  8
0
 10
-1.123780989944003
 20
4.099740121173252
 30
0.0
 11
-6.818125816621625
 21
4.09974012117385
 31
0.0
  0
LINE
  5
89
  8
0
 10
8.087829477265387
 20
4.099740121172271
 30
0.0
 11
2.393484650587767
 21
4.09974012117288
 31
0.0
  0
LINE
  5
8A
  8
0
 10
-8.990148169622085
 20
-19.36025987883335
 30
0.0
 11
-6.818125816632353
 21
-19.360259878829
 31
0.0
  0
LINE
  5
8B
  8
0
 10
-8.990148169677978
 20
-7.168892699093612
 30
0.0
 11
-8.990148169677978
 21
-12.86323752577123
 31
0.0
  0
LINE
  5
8C
  8
0
 10
-8.990148169677978
 20
2.042717768115778
 30
0.0
 11
-8.990148169677978
 21
-3.651627058561846
 31
0.0
  0
LINE
  5
8D
  8
0
 10
10.25985183032202
 20
8.539740121174864
 30
0.0
 11
8.087829477265858
 21
8.539740121173544
 31
0.0
  0
LINE
  5
8E
  8
0
 10
10.25985183032203
 20
2.04271776811364
 30
0.0
 11
10.25985183031393
 21
-3.65162705856398
 31
0.0
  0
LINE
  5
8F
  8
0
 10
10.25985183030892
 20
-7.16889269909575
 30
0.0
 11
10.25985183030082
 21
-12.86323752577337
 31
0.0
  0
LINE
  5
90
  8
0
 10
14.69985183030545
 20
-14.92025987882773
 30
0.0
 11
14.69985183030209
 21
-12.86323752577969
 31
0.0
  0
LINE
  5
91
  8
0
 10
2.39348465058493
 20
-14.9202598788441
 30
0.0
 11
8.08782947726255
 21
-14.92025987885422
 31
0.0
  0
LINE
  5
92
  8
0
 10
-6.818125816624458
 20
-14.92025987882773
 30
0.0
 11
-1.123780989946845
 21
-14.92025987883785
 31
0.0
  0
LINE
  5
93
  8
0
 10
14.69985183031994
 20
4.099740121172271
 30
0.0
 11
14.66741065869177
 21
4.68130289645198
 31
0.0
  0
LINE
  5
94
  8
0
 10
14.66741065869177
 20
4.68130289645198
 30
0.0
 11
14.55832601230741
 21
5.253463914986841
 31
0.0
  0
LINE
  5
95
  8
0
 10
14.55832601230741
 20
5.253463914986841
 30
0.0
 11
14.37451504919047
 21
5.806167471195473
 31
0.0
  0
LINE
  5
96
  8
0
 10
14.37451504919047
 20
5.806167471195473
 30
0.0
 11
14.11920823920495
 21
6.329699823569868
 31
0.0
  0
LINE
  5
97
  8
0
 10
14.11920823920495
 20
6.329699823569868
 30
0.0
 11
13.79689258868468
 21
6.814859913269492
 31
0.0
  0
LINE
  5
98
  8
0
 10
13.79689258868468
 20
6.814859913269492
 30
0.0
 11
13.41323278148772
 21
7.253121072339319
 31
0.0
  0
LINE
  5
99
  8
0
 10
13.41323278148772
 20
7.253121072339319
 30
0.0
 11
12.97497162241829
 21
7.636780879536751
 31
0.0
  0
LINE
  5
9A
  8
0
 10
12.97497162241829
 20
7.636780879536751
 30
0.0
 11
12.489811532719
 21
7.959096530057531
 31
0.0
  0
LINE
  5
9B
  8
0
 10
12.489811532719
 20
7.959096530057531
 30
0.0
 11
11.96627918034488
 21
8.214403340043596
 31
0.0
  0
LINE
  5
9C
  8
0
 10
11.96627918034488
 20
8.214403340043596
 30
0.0
 11
11.41357562413644
 21
8.398214303161119
 31
0.0
  0
LINE
  5
9D
  8
0
 10
11.41357562413644
 20
8.398214303161119
 30
0.0
 11
10.8414146056017
 21
8.507298949546088
 31
0.0
  0
LINE
  5
9E
  8
0
 10
10.8414146056017
 20
8.507298949546088
 30
0.0
 11
10.25985183032202
 21
8.539740121174864
 31
0.0
  0
LINE
  5
9F
  8
0
 10
-8.990148169677981
 20
8.539740121174864
 30
0.0
 11
-9.569637875793223
 21
8.501629008419417
 31
0.0
  0
LINE
  5
A0
  8
0
 10
-9.569637875793223
 20
8.501629008419417
 30
0.0
 11
-10.13920005173415
 21
8.388228372854966
 31
0.0
  0
LINE
  5
A1
  8
0
 10
-10.13920005173415
 20
8.388228372854966
 30
0.0
 11
-10.68909533826989
 21
8.201477334692465
 31
0.0
  0
LINE
  5
A2
  8
0
 10
-10.68909533826989
 20
8.201477334692465
 30
0.0
 11
-11.20992067466155
 21
7.944569286197486
 31
0.0
  0
LINE
  5
A3
  8
0
 10
-11.20992067466155
 20
7.944569286197486
 30
0.0
 11
-11.69277008845884
 21
7.621897285545741
 31
0.0
  0
LINE
  5
A4
  8
0
 10
-11.69277008845884
 20
7.621897285545741
 30
0.0
 11
-12.12938698522127
 21
7.238978936715942
 31
0.0
  0
LINE
  5
A5
  8
0
 10
-12.12938698522127
 20
7.238978936715942
 30
0.0
 11
-12.51230533405093
 21
6.802362039953405
 31
0.0
  0
LINE
  5
A6
  8
0
 10
-12.51230533405093
 20
6.802362039953405
 30
0.0
 11
-12.83497733470253
 21
6.319512626156015
 31
0.0
  0
LINE
  5
A7
  8
0
 10
-12.83497733470253
 20
6.319512626156015
 30
0.0
 11
-13.09188538319736
 21
5.798687289764278
 31
0.0
  0
LINE
  5
A8
  8
0
 10
-13.09188538319736
 20
5.798687289764278
 30
0.0
 11
-13.2786364213597
 21
5.248792003228482
 31
0.0
  0
LINE
  5
A9
  8
0
 10
-13.2786364213597
 20
5.248792003228482
 30
0.0
 11
-13.39203705692398
 21
4.679229827287527
 31
0.0
  0
LINE
  5
AA
  8
0
 10
-13.39203705692398
 20
4.679229827287527
 30
0.0
 11
-13.43014816967925
 21
4.099740121172271
 31
0.0
  0
LINE
  5
AB
  8
0
 10
-8.990148169622085
 20
-19.36025987883335
 30
0.0
 11
-9.573750226761785
 21
-19.33349870760056
 31
0.0
  0
LINE
  5
AC
  8
0
 10
-9.573750226761785
 20
-19.33349870760056
 30
0.0
 11
-10.14849628007111
 21
-19.22873948085277
 31
0.0
  0
LINE
  5
AD
  8
0
 10
-10.14849628007111
 20
-19.22873948085277
 30
0.0
 11
-10.7040095957519
 21
-19.04787357061873
 31
0.0
  0
LINE
  5
AE
  8
0
 10
-10.7040095957519
 20
-19.04787357061873
 30
0.0
 11
-11.23026067683765
 21
-18.79416641455192
 31
0.0
  0
LINE
  5
AF
  8
0
 10
-11.23026067683765
 20
-18.79416641455192
 30
0.0
 11
-11.71774834041816
 21
-18.47219856019335
 31
0.0
  0
LINE
  5
B0
  8
0
 10
-11.71774834041816
 20
-18.47219856019335
 30
0.0
 11
-12.15767125643514
 21
-18.08778296562601
 31
0.0
  0
LINE
  5
B1
  8
0
 10
-12.15767125643514
 20
-18.08778296562601
 30
0.0
 11
-12.54208685100759
 21
-17.6478600496135
 31
0.0
  0
LINE
  5
B2
  8
0
 10
-12.54208685100759
 20
-17.6478600496135
 30
0.0
 11
-12.86405470537181
 21
-17.16037238603673
 31
0.0
  0
LINE
  5
B3
  8
0
 10
-12.86405470537181
 20
-17.16037238603673
 30
0.0
 11
-13.11776186144473
 21
-16.63412130495391
 31
0.0
  0
LINE
  5
B4
  8
0
 10
-13.11776186144473
 20
-16.63412130495391
 30
0.0
 11
-13.29862777168522
 21
-16.07860798927523
 31
0.0
  0
LINE
  5
B5
  8
0
 10
-13.29862777168522
 20
-16.07860798927523
 30
0.0
 11
-13.40338699843968
 21
-15.50386193596712
 31
0.0
  0
LINE
  5
B6
  8
0
 10
-13.40338699843968
 20
-15.50386193596712
 30
0.0
 11
-13.43014816967925
 21
-14.92025987882773
 31
0.0
  0
LINE
  5
B7
  8
0
 10
10.25985183032202
 20
-19.36025987885114
 30
0.0
 11
10.84345388745862
 21
-19.3334987076149
 31
0.0
  0
LINE
  5
B8
  8
0
 10
10.84345388745862
 20
-19.3334987076149
 30
0.0
 11
11.41819994076434
 21
-19.22873948086368
 31
0.0
  0
LINE
  5
B9
  8
0
 10
11.41819994076434
 20
-19.22873948086368
 30
0.0
 11
11.97371325644094
 21
-19.0478735706263
 31
0.0
  0
LINE
  5
BA
  8
0
 10
11.97371325644094
 20
-19.0478735706263
 30
0.0
 11
12.49996433752192
 21
-18.79416641455633
 31
0.0
  0
LINE
  5
BB
  8
0
 10
12.49996433752192
 20
-18.79416641455633
 30
0.0
 11
12.98745200109702
 21
-18.47219856019492
 31
0.0
  0
LINE
  5
BC
  8
0
 10
12.98745200109702
 20
-18.47219856019492
 30
0.0
 11
13.42737491710798
 21
-18.08778296562514
 31
0.0
  0
LINE
  5
BD
  8
0
 10
13.42737491710798
 20
-18.08778296562514
 30
0.0
 11
13.81179051167379
 21
-17.64786004961073
 31
0.0
  0
LINE
  5
BE
  8
0
 10
13.81179051167379
 20
-17.64786004961073
 30
0.0
 11
14.13375836603082
 21
-17.16037238603273
 31
0.0
  0
LINE
  5
BF
  8
0
 10
14.13375836603082
 20
-17.16037238603273
 30
0.0
 11
14.38746552209605
 21
-16.63412130494946
 31
0.0
  0
LINE
  5
C0
  8
0
 10
14.38746552209605
 20
-16.63412130494946
 30
0.0
 11
14.56833143232842
 21
-16.07860798927123
 31
0.0
  0
LINE
  5
C1
  8
0
 10
14.56833143232842
 20
-16.07860798927123
 30
0.0
 11
14.67309065907447
 21
-15.50386193596458
 31
0.0
  0
LINE
  5
C2
  8
0
 10
14.67309065907447
 20
-15.50386193596458
 30
0.0
 11
14.69985183030545
 21
-14.92025987882773
 31
0.0
  0
LINE
  5
C3
  8
0
 10
-13.43014816967925
 20
-7.168892699093612
 30
0.0
 11
-13.43014816967925
 21
-3.651627058561846
 31
0.0
  0
ENDSEC
  0
EOF
