999
"DXF R12 Output" (www.mydxf.blogspot.com)
 0 
SECTION
 2 
HEADER
 9 
$ACADVER
 1 
AC1009
 9 
$EXTMIN
 10 
 0 
 20 
 0 
 9 
$EXTMAX
 10 
 8.5 
 20 
 11 
 0 
ENDSEC
 0 
SECTION
 2 
ENTITIES
0
LINE
8
Layer 1
10
0.846666
20
8.713960
11
-0.846666
21
7.020620
0
LINE
8
Layer 1
10
0.000000
20
9.278400
11
0.000000
21
6.456180
0
LINE
8
Layer 1
10
2.257780
20
6.738400
11
1.128890
21
5.609510
0
LINE
8
Layer 1
10
1.693330
20
7.302850
11
0.564440
21
6.173960
0
LINE
8
Layer 1
10
1.128890
20
7.867290
11
0.000000
21
6.738400
0
LINE
8
0
10
82.611500
20
-1710.900000
11
82.611500
21
-1237.300000
0
LINE
8
0
10
690.007000
20
-1237.300000
11
690.007000
21
-1710.900000
0
LINE
8
0
10
-1605.240000
20
-410.487000
11
-1131.640000
21
-410.487000
0
LINE
8
0
10
-899.961000
20
-1237.300000
11
-899.961000
21
-1710.900000
0
LINE
8
0
10
-1605.240000
20
-35.311800
11
-1131.640000
21
-35.311800
0
LINE
8
0
10
-1131.640000
20
-1017.880000
11
-1605.240000
21
-1017.880000
0
LINE
8
0
10
-1131.640000
20
572.086000
11
-1605.240000
21
572.086000
0
LINE
8
0
10
-899.961000
20
791.499000
11
-899.961000
21
1265.100000
0
LINE
8
0
10
82.611500
20
1265.100000
11
82.611500
21
791.499000
0
LINE
8
0
10
690.007000
20
791.499000
11
690.007000
21
1265.100000
0
LINE
8
0
10
-292.563000
20
1265.100000
11
-292.563000
21
791.499000
0
LINE
8
0
10
-292.563000
20
-1710.900000
11
-292.563000
21
-1237.300000
0
LINE
8
0
10
921.689000
20
572.086000
11
1395.290000
21
572.086000
0
LINE
8
0
10
921.689000
20
-1017.880000
11
1395.290000
21
-1017.880000
0
LINE
8
0
10
1395.290000
20
-35.311800
11
921.689000
21
-35.311800
0
LINE
8
0
10
1395.290000
20
-410.487000
11
921.689000
21
-410.487000
0
LINE
8
0
10
-292.563000
20
-1710.900000
11
82.611500
21
-1710.900000
0
LINE
8
0
10
1395.290000
20
572.086000
11
1395.290000
21
791.499000
0
LINE
8
0
10
1395.290000
20
-410.487000
11
1395.290000
21
-35.311800
0
LINE
8
0
10
-899.961000
20
1265.100000
11
-1131.640000
21
1265.100000
0
LINE
8
0
10
82.611500
20
1265.100000
11
-292.563000
21
1265.100000
0
LINE
8
0
10
690.007000
20
-1710.900000
11
921.689000
21
-1710.900000
0
LINE
8
0
10
-1605.240000
20
-1017.880000
11
-1605.240000
21
-1237.300000
0
LINE
8
0
10
-1605.240000
20
791.499000
11
-1605.240000
21
572.086000
0
LINE
8
0
10
-292.563000
20
791.499000
11
-899.961000
21
791.499000
0
LINE
8
0
10
690.007000
20
791.499000
11
82.611500
21
791.499000
0
LINE
8
0
10
-1131.640000
20
-1710.900000
11
-899.961000
21
-1710.900000
0
LINE
8
0
10
-1131.640000
20
-410.487000
11
-1131.640000
21
-1017.880000
0
LINE
8
0
10
-1131.640000
20
572.086000
11
-1131.640000
21
-35.311800
0
LINE
8
0
10
921.689000
20
1265.100000
11
690.007000
21
1265.100000
0
LINE
8
0
10
921.689000
20
572.086000
11
921.689000
21
-35.311800
0
LINE
8
0
10
921.689000
20
-410.487000
11
921.689000
21
-1017.880000
0
LINE
8
0
10
1395.290000
20
-1237.300000
11
1395.290000
21
-1017.880000
0
LINE
8
0
10
82.611500
20
-1237.300000
11
690.007000
21
-1237.300000
0
LINE
8
0
10
-899.961000
20
-1237.300000
11
-292.563000
21
-1237.300000
0
LINE
8
0
10
1395.290000
20
791.499000
11
1391.829960
21
853.534200
0
LINE
8
0
10
1391.830000
20
853.534000
11
1380.194000
21
914.564500
0
LINE
8
0
10
1380.190000
20
914.565000
11
1360.584000
21
973.518400
0
LINE
8
0
10
1360.590000
20
973.518000
11
1333.358400
21
1029.361300
0
LINE
8
0
10
1333.360000
20
1029.360000
11
1298.979700
21
1081.111000
0
LINE
8
0
10
1298.970000
20
1081.110000
11
1258.045000
21
1127.857300
0
LINE
8
0
10
1258.050000
20
1127.860000
11
1211.302700
21
1168.785000
0
LINE
8
0
10
1211.300000
20
1168.780000
11
1159.549000
21
1203.160300
0
LINE
8
0
10
1159.550000
20
1203.160000
11
1103.706700
21
1230.391600
0
LINE
8
0
10
1103.710000
20
1230.400000
11
1044.756600
21
1250.006000
0
LINE
8
0
10
1044.750000
20
1250.000000
11
983.719500
21
1261.636000
0
LINE
8
0
10
983.724000
20
1261.640000
11
921.688800
21
1265.100040
0
LINE
8
0
10
-1131.640000
20
1265.100000
11
-1193.452300
21
1261.036000
0
LINE
8
0
10
-1193.450000
20
1261.030000
11
-1254.201100
21
1248.934000
0
LINE
8
0
10
-1254.210000
20
1248.940000
11
-1312.867000
21
1229.020800
0
LINE
8
0
10
-1312.860000
20
1229.020000
11
-1368.415400
21
1201.616200
0
LINE
8
0
10
-1368.420000
20
1201.620000
11
-1419.922700
21
1167.200200
0
LINE
8
0
10
-1419.920000
20
1167.200000
11
-1466.492300
21
1126.356800
0
LINE
8
0
10
-1466.490000
20
1126.350000
11
-1507.336000
21
1079.777700
0
LINE
8
0
10
-1507.340000
20
1079.780000
11
-1541.757000
21
1028.274500
0
LINE
8
0
10
-1541.760000
20
1028.270000
11
-1569.163800
21
972.714600
0
LINE
8
0
10
-1569.160000
20
972.719000
11
-1589.079200
21
914.064800
0
LINE
8
0
10
-1589.080000
20
914.065000
11
-1601.176000
21
853.311100
0
LINE
8
0
10
-1601.180000
20
853.311000
11
-1605.246820
21
791.498700
0
LINE
8
0
10
-1131.640000
20
-1710.900000
11
-1193.890000
21
-1708.040000
0
LINE
8
0
10
-1193.890000
20
-1708.040000
11
-1255.197100
21
-1696.866800
0
LINE
8
0
10
-1255.200000
20
-1696.870000
11
-1314.455300
21
-1677.577300
0
LINE
8
0
10
-1314.450000
20
-1677.580000
11
-1370.581100
21
-1650.517700
0
LINE
8
0
10
-1370.590000
20
-1650.510000
11
-1422.589400
21
-1616.166400
0
LINE
8
0
10
-1422.590000
20
-1616.170000
11
-1469.515100
21
-1575.166000
0
LINE
8
0
10
-1469.510000
20
-1575.170000
11
-1510.514000
21
-1528.244900
0
LINE
8
0
10
-1510.510000
20
-1528.240000
11
-1544.853600
21
-1476.240600
0
LINE
8
0
10
-1544.860000
20
-1476.240000
11
-1571.922300
21
-1420.108900
0
LINE
8
0
10
-1571.920000
20
-1420.110000
11
-1591.212700
21
-1360.854700
0
LINE
8
0
10
-1591.210000
20
-1360.860000
11
-1602.383200
21
-1299.552900
0
LINE
8
0
10
-1602.390000
20
-1299.550000
11
-1605.246090
21
-1237.300300
0
LINE
8
0
10
921.689000
20
-1710.900000
11
983.942000
21
-1708.040000
0
LINE
8
0
10
983.942000
20
-1708.040000
11
1045.246300
21
-1696.866800
0
LINE
8
0
10
1045.250000
20
-1696.870000
11
1104.505300
21
-1677.577300
0
LINE
8
0
10
1104.500000
20
-1677.580000
11
1160.634000
21
-1650.517700
0
LINE
8
0
10
1160.640000
20
-1650.510000
11
1212.639400
21
-1616.166400
0
LINE
8
0
10
1212.630000
20
-1616.170000
11
1259.555100
21
-1575.166000
0
LINE
8
0
10
1259.560000
20
-1575.170000
11
1300.560000
21
-1528.240000
0
LINE
8
0
10
1300.560000
20
-1528.240000
11
1334.903600
21
-1476.240600
0
LINE
8
0
10
1334.910000
20
-1476.240000
11
1361.972300
21
-1420.108900
0
LINE
8
0
10
1361.970000
20
-1420.110000
11
1381.262700
21
-1360.854700
0
LINE
8
0
10
1381.260000
20
-1360.860000
11
1392.433200
21
-1299.552900
0
LINE
8
0
10
1392.440000
20
-1299.550000
11
1395.293260
21
-1237.300300
0
LINE
8
0
10
-1605.240000
20
-410.487000
11
-1605.240000
21
-35.311800
 0 
ENDSEC
 0 
EOF