# Alias OBJ Model File
# Exported from SketchUp, (c) 2000-2012 Trimble Navigation Limited
# File units = millimeters

mtllib antena_cover.mtl

g Mesh1 Group1 Model

usemtl FrontColor
v 12955.9 16628.6 4.28
vt 79.5276 -27.5591
vn 2.41405e-14 8.27307e-13 1
v 12958.9 16551.4 4.28
vt 67.7165 276.378
v 12958.9 16628.6 4.28
vt 67.7165 -27.5591
f 1/1/1 2/2/1 3/3/1

v 12955.9 16548.4 4.28
vt 79.5276 288.189
f 4/4/1 2/2/1 1/1/1

v 12973.1 16551.4 4.28
vt 11.811 276.378
f 4/4/1 5/5/1 2/2/1

v 12976.1 16548.4 4.28
vt 1.13687e-13 288.189
f 6/6/1 5/5/1 4/4/1

v 12973.1 16628.6 4.28
vt 11.811 -27.5591
f 6/6/1 7/7/1 5/5/1

v 12976.1 16628.6 4.28
vt 1.13687e-13 -27.5591
f 7/7/1 6/6/1 8/8/1

vt -288.189 16.8504
vn 1 -2.03316e-26 -2.41405e-14
v 12976.1 16628.6 -4.28815e-12
vt 27.5591 -1.13687e-13
vt 27.5591 16.8504
f 6/9/2 9/10/2 8/11/2

v 12976.1 16548.4 6.20907e-11
vt -288.189 1.03398e-25
f 9/10/2 6/9/2 10/12/2

vt -1.13687e-13 16.8504
vn -3.59933e-28 -1 8.27307e-13
v 12955.9 16548.4 6.25784e-11
vt -79.5276 1.03398e-25
vt 0 1.03398e-25
f 6/13/3 11/14/3 10/15/3

vt -79.5276 16.8504
f 11/14/3 6/13/3 4/16/3

vt -27.5591 16.8504
vn -1 2.03316e-26 2.41405e-14
vt 288.189 1.03398e-25
vt 288.189 16.8504
f 1/17/4 11/18/4 4/19/4

v 12955.9 16628.6 -3.84383e-12
vt -27.5591 -2.84217e-13
f 11/18/4 1/17/4 12/20/4

vt 79.5276 16.8504
vn 3.59933e-28 1 -8.27307e-13
v 12958.9 16628.6 1
vt 67.7165 3.93701
vt 79.5276 -2.84217e-13
f 1/21/5 13/22/5 12/23/5

vt 67.7165 16.8504
f 13/22/5 1/21/5 3/24/5

vt -276.378 16.8504
vt 27.5591 3.93701
f 2/25/2 13/26/2 3/11/2

v 12958.9 16551.4 1
vt -276.378 3.93701
f 13/26/2 2/25/2 14/27/2

v 12973.1 16551.4 1
vt 11.811 3.93701
f 2/24/5 15/28/5 14/22/5

vt 11.811 16.8504
f 15/28/5 2/24/5 5/29/5

vt 276.378 3.93701
vt 276.378 16.8504
f 7/17/4 15/30/4 5/31/4

v 12973.1 16628.6 1
vt -27.5591 3.93701
f 15/30/4 7/17/4 16/32/4

vt 1.13687e-13 16.8504
f 8/33/5 16/28/5 7/29/5

vt 0 -1.13687e-13
f 16/28/5 8/33/5 9/34/5

v 12970 16628.6 1
vt 24.0157 3.93701
f 9/34/5 17/35/5 16/28/5

v 12970 16628.6 -4.1409e-12
vt 24.0157 -1.13687e-13
f 17/35/5 9/34/5 18/36/5

vt -24.0157 -27.5591
vn -2.41405e-14 -8.27307e-13 -1
vt 0 -27.5591
v 12970 16608.6 1.24341e-11
vt -24.0157 51.1811
f 18/37/6 9/38/6 19/39/6

vt -79.5276 288.189
f 9/38/6 11/40/6 19/39/6

vt 0 288.189
f 11/40/6 9/38/6 10/41/6

v 12962 16608.6 1.26272e-11
vt -55.5118 51.1811
f 19/39/6 11/40/6 20/42/6

v 12962 16628.6 -3.99109e-12
vt -55.5118 -27.5591
f 20/42/6 11/40/6 21/43/6

vt -79.5276 -27.5591
f 21/43/6 11/40/6 12/44/6

v 12962 16628.6 1
vt 55.5118 3.93701
vt 55.5118 -2.84217e-13
f 12/23/5 22/45/5 21/46/5

f 22/45/5 12/23/5 13/22/5

v 12962 16608.6 1
vt 55.5118 51.1811
vt 55.5118 -27.5591
f 13/3/1 23/47/1 22/48/1

f 14/2/1 23/47/1 13/3/1

v 12970 16608.6 1
vt 24.0157 51.1811
f 14/2/1 24/49/1 23/47/1

f 15/5/1 24/49/1 14/2/1

vt 24.0157 -27.5591
f 15/5/1 17/50/1 24/49/1

f 17/50/1 15/5/1 16/7/1

vt 51.1811 1.03398e-25
vt 51.1811 3.93701
f 17/32/4 19/51/4 24/52/4

vt -27.5591 -1.13687e-13
f 19/51/4 17/32/4 18/53/4

vt 24.0157 1.03398e-25
f 19/54/5 23/45/5 24/35/5

vt 55.5118 1.03398e-25
f 23/45/5 19/54/5 20/55/5

vt 27.5591 -2.84217e-13
vt -51.1811 3.93701
vt -51.1811 1.03398e-25
f 21/56/2 23/57/2 20/58/2

f 23/57/2 21/56/2 22/26/2

