# Alias OBJ Model File
# Exported from SketchUp, (c) 2000-2012 Trimble Navigation Limited
# File units = millimeters

mtllib round_pokrov.mtl

g Mesh1 Group1 Model

usemtl FrontColor
v 5246.65 4389.93 181
vt -8.63454 0.393701
vn -0.187381 0.982287 8.12937e-19
v 5249.24 4390.26 180
vt -9.66292 4.35794e-16
vn -0.0627905 0.998027 2.72411e-19
v 5246.65 4389.93 180
vt -8.63454 4.35794e-16
f 1/1/1 2/2/2 3/3/1

v 5249.24 4390.26 181
vt -9.66292 0.393701
f 2/2/2 1/1/1 4/4/2

vt 6.65452 16.2167
vn 4.33841e-18 -3.89583e-32 1
v 5249.24 4348.74 181
vt 7.67479 1.53379e-32
vt 7.67479 16.3456
f 1/5/3 5/6/3 4/7/3

v 5246.65 4349.07 181
vt 6.65452 0.12889
f 1/5/3 6/8/3 5/6/3

v 5244.12 4389.29 181
vt 5.65844 15.961
f 7/9/3 6/8/3 1/5/3

v 5244.12 4349.72 181
vt 5.65844 0.384638
f 7/9/3 8/10/3 6/8/3

v 5241.69 4388.32 181
vt 4.70228 15.5824
f 9/11/3 8/10/3 7/9/3

v 5241.69 4350.68 181
vt 4.70228 0.76321
f 9/11/3 10/12/3 8/10/3

v 5239.4 4387.07 181
vt 3.8011 15.087
f 11/13/3 10/12/3 9/11/3

v 5239.4 4351.94 181
vt 3.8011 1.25864
f 11/13/3 12/14/3 10/12/3

v 5237.29 4385.53 181
vt 2.96913 14.4825
f 13/15/3 12/14/3 11/13/3

v 5237.29 4353.48 181
vt 2.96913 1.8631
f 13/15/3 14/16/3 12/14/3

v 5235.38 4383.74 181
vt 2.21947 13.7786
f 15/17/3 14/16/3 13/15/3

v 5235.38 4355.26 181
vt 2.21947 2.56708
f 15/17/3 16/18/3 14/16/3

v 5233.72 4381.73 181
vt 1.56396 12.9862
f 17/19/3 16/18/3 15/17/3

v 5233.72 4357.28 181
vt 1.56396 3.35946
f 17/19/3 18/20/3 16/18/3

v 5232.32 4379.52 181
vt 1.01292 12.1179
f 19/21/3 18/20/3 17/19/3

v 5232.32 4359.48 181
vt 1.01292 4.22775
f 19/21/3 20/22/3 18/20/3

v 5231.2 4377.16 181
vt 0.575059 11.1874
f 21/23/3 20/22/3 19/21/3

v 5231.2 4361.85 181
vt 0.575059 5.15825
f 21/23/3 22/24/3 20/22/3

v 5230.4 4374.68 181
vt 0.257272 10.2093
f 23/25/3 22/24/3 21/23/3

v 5230.4 4364.33 181
vt 0.257272 6.1363
f 23/25/3 24/26/3 22/24/3

v 5229.91 4372.11 181
vt 0.0645725 9.19917
f 25/27/3 24/26/3 23/25/3

v 5229.91 4366.9 181
vt 0.0645725 7.14647
f 25/27/3 26/28/3 24/26/3

v 5229.74 4369.5 181
vt -1.70804e-18 8.17282
f 26/28/3 25/27/3 27/29/3

vt -9.18507 0.393701
vn -0.992115 0.125333 4.3042e-18
v 5229.74 4369.5 180
vt -8.15669 8.85956e-16
vn -1 8.69077e-16 4.33841e-18
vt -8.15669 0.393701
f 25/30/4 28/31/5 27/32/5

v 5229.91 4372.11 180
vt -9.18507 4.41867e-16
f 28/31/5 25/30/4 29/33/4

vt -10.0767 0.393701
vn -0.968583 0.24869 4.20211e-18
vt -9.04833 4.37014e-16
vt -9.04833 0.393701
f 23/34/6 29/35/4 25/36/4

v 5230.4 4374.68 180
vt -10.0767 4.37014e-16
f 29/35/4 23/34/6 30/37/6

vt -10.8175 0.393701
vn -0.929776 0.368125 4.03375e-18
vt -9.78915 4.32082e-16
vt -9.78915 0.393701
f 21/38/7 30/39/6 23/40/6

v 5231.2 4377.16 180
vt -10.8175 4.32082e-16
f 30/39/6 21/38/7 31/41/7

vt -11.3959 0.393701
vn -0.876307 0.481754 3.80178e-18
vt -10.3675 4.27433e-16
vt -10.3675 0.393701
f 19/42/8 31/43/7 21/44/7

v 5232.32 4379.52 180
vt -11.3959 4.27433e-16
f 31/43/7 19/42/8 32/45/8

vt -11.8026 0.393701
vn -0.809017 0.587785 3.50985e-18
vt -10.7742 4.23438e-16
vt -10.7742 0.393701
f 17/46/9 32/47/8 19/48/8

v 5233.72 4381.73 180
vt -11.8026 4.23438e-16
f 32/47/8 17/46/9 33/49/9

vt -12.0313 0.393701
vn -0.728969 0.684547 3.16256e-18
vt -11.0029 4.20447e-16
vt -11.0029 0.393701
f 15/50/10 33/51/9 17/52/9

v 5235.38 4383.74 180
vt -12.0313 4.20447e-16
f 33/51/9 15/50/10 34/53/10

vt -11.05 0.393701
v 5237.29 4385.53 180
vt -12.0784 4.18772e-16
vn -0.637424 0.770513 2.76541e-18
vt -11.05 4.18772e-16
f 15/54/10 35/55/11 34/56/10

vt -12.0784 0.393701
f 35/55/11 15/54/10 13/57/11

vt -10.9147 0.393701
v 5239.4 4387.07 180
vt -11.9431 4.18662e-16
vn -0.535827 0.844328 2.32464e-18
vt -10.9147 4.18662e-16
f 13/58/11 36/59/12 35/60/11

vt -11.9431 0.393701
f 36/59/12 13/58/11 11/61/12

vt -10.5991 0.393701
v 5241.69 4388.32 180
vt -11.6275 4.20284e-16
vn -0.425779 0.904827 1.84721e-18
vt -10.5991 4.20284e-16
f 11/62/12 37/63/13 36/64/12

vt -11.6275 0.393701
f 37/63/13 11/62/12 9/65/13

vt -10.1083 0.393701
v 5244.12 4389.29 180
vt -11.1367 4.23715e-16
vn -0.309017 0.951057 1.34064e-18
vt -10.1083 4.23715e-16
f 9/66/13 38/67/14 37/68/13

vt -11.1367 0.393701
f 38/67/14 9/66/13 7/69/14

vt -9.45001 0.393701
vt -10.4784 4.28928e-16
vt -9.45001 4.28928e-16
f 7/70/14 3/71/1 38/72/14

vt -10.4784 0.393701
f 3/71/1 7/70/14 1/73/1

v 5246.65 4349.07 180
vt -6.65452 0.12889
vn -4.33841e-18 3.89583e-32 -1
vt -5.65844 15.961
vt -6.65452 16.2167
f 39/74/15 38/75/15 3/76/15

v 5244.12 4349.72 180
vt -5.65844 0.384638
f 40/77/15 38/75/15 39/74/15

v 5241.69 4350.68 180
vt -4.70228 0.76321
f 41/78/15 38/75/15 40/77/15

vt -4.70228 15.5824
f 41/78/15 37/79/15 38/75/15

v 5239.4 4351.94 180
vt -3.8011 1.25864
f 42/80/15 37/79/15 41/78/15

vt -3.8011 15.087
f 42/80/15 36/81/15 37/79/15

v 5237.29 4353.48 180
vt -2.96913 1.8631
f 43/82/15 36/81/15 42/80/15

vt -2.96913 14.4825
f 43/82/15 35/83/15 36/81/15

v 5235.38 4355.26 180
vt -2.21947 2.56708
f 44/84/15 35/83/15 43/82/15

vt -2.21947 13.7786
f 44/84/15 34/85/15 35/83/15

v 5233.72 4357.28 180
vt -1.56396 3.35946
f 45/86/15 34/85/15 44/84/15

vt -1.56396 12.9862
f 45/86/15 33/87/15 34/85/15

v 5232.32 4359.48 180
vt -1.01292 4.22775
f 46/88/15 33/87/15 45/86/15

vt -1.01292 12.1179
f 46/88/15 32/89/15 33/87/15

v 5231.2 4361.85 180
vt -0.575059 5.15825
f 47/90/15 32/89/15 46/88/15

vt -0.575059 11.1874
f 47/90/15 31/91/15 32/89/15

v 5230.4 4364.33 180
vt -0.257272 6.1363
f 48/92/15 31/91/15 47/90/15

vt -0.257272 10.2093
f 48/92/15 30/93/15 31/91/15

v 5229.91 4366.9 180
vt -0.0645725 7.14647
f 49/94/15 30/93/15 48/92/15

vt -0.0645725 9.19917
f 49/94/15 29/95/15 30/93/15

vt 3.85328e-33 8.17282
f 29/95/15 49/94/15 28/96/15

vt -7.12831 4.46311e-16
vn -0.992115 -0.125333 4.3042e-18
vt -8.15669 8.904e-16
f 49/97/16 27/32/5 28/98/5

vt -7.12831 0.393701
f 27/32/5 49/97/16 26/99/16

vt -5.9794 4.50066e-16
vn -0.968583 -0.24869 4.20211e-18
vt -7.00778 0.393701
vt -7.00778 4.50066e-16
f 48/100/17 26/101/16 49/102/16

vt -5.9794 0.393701
f 26/101/16 48/100/17 24/103/17

vt -4.72809 4.52923e-16
vn -0.929776 -0.368125 4.03375e-18
vt -5.75647 0.393701
vt -5.75647 4.52923e-16
f 47/104/18 24/105/17 48/106/17

vt -4.72809 0.393701
f 24/105/17 47/104/18 22/107/18

vt -3.3941 4.54753e-16
vn -0.876307 -0.481754 3.80178e-18
vt -4.42248 0.393701
vt -4.42248 4.54753e-16
f 46/108/19 22/109/18 47/110/18

vt -3.3941 0.393701
f 22/109/18 46/108/19 20/111/19

vt -1.99847 4.5552e-16
vn -0.809017 -0.587785 3.50985e-18
vt -3.02685 0.393701
vt -3.02685 4.5552e-16
f 45/112/20 20/113/19 46/114/19

vt -1.99847 0.393701
f 20/113/19 45/112/20 18/115/20

vt -0.563224 4.55276e-16
vn -0.728969 -0.684547 3.16256e-18
vt -1.5916 0.393701
vt -1.5916 4.55276e-16
f 44/116/21 18/117/20 45/118/20

vt -0.563224 0.393701
f 18/117/20 44/116/21 16/119/21

vt -0.139362 4.54159e-16
vt 0.889019 0.393701
vn -0.637424 -0.770513 2.76541e-18
vt -0.139362 0.393701
f 44/120/21 14/121/22 16/122/21

vt 0.889019 4.54159e-16
f 14/121/22 44/120/21 43/123/22

vt 1.30697 4.52383e-16
vt 2.33535 0.393701
vn -0.535827 -0.844328 2.32464e-18
vt 1.30697 0.393701
f 43/124/22 12/125/23 14/126/22

vt 2.33535 4.52383e-16
f 12/125/23 43/124/22 42/127/23

vt 2.72458 4.50222e-16
vt 3.75296 0.393701
vn -0.425779 -0.904827 1.84721e-18
vt 2.72458 0.393701
f 42/128/23 10/129/24 12/130/23

vt 3.75296 4.50222e-16
f 10/129/24 42/128/23 41/131/24

vt 4.09111 4.47987e-16
vt 5.11949 0.393701
vn -0.309017 -0.951057 1.34064e-18
vt 4.09111 0.393701
f 41/132/24 8/133/25 10/134/24

vt 5.11949 4.47987e-16
f 8/133/25 41/132/24 40/135/25

vt 5.38502 4.46009e-16
vt 6.4134 0.393701
vn -0.187381 -0.982287 8.12937e-19
vt 5.38502 0.393701
f 40/136/25 6/137/26 8/138/25

vt 6.4134 4.46009e-16
f 6/137/26 40/136/25 39/139/26

vt 6.58589 4.44612e-16
vt 7.61427 0.393701
vn -0.0627905 -0.998027 2.72411e-19
vt 6.58589 0.393701
f 39/140/26 5/141/27 6/142/26

v 5249.24 4348.74 180
vt 7.61427 4.44612e-16
f 5/141/27 39/140/26 50/143/27

vt -7.67479 16.3456
vt -7.67479 1.85981e-47
f 39/74/15 2/144/15 50/145/15

f 39/74/15 3/76/15 2/144/15

v 5251.85 4390.26 180
vt -8.70317 16.3456
f 50/145/15 2/144/15 51/146/15

vt -7.67479 0.393701
vt -8.70317 4.44089e-16
vn 0.0627905 0.998027 -2.72411e-19
vt -7.67479 4.44089e-16
f 4/147/2 51/148/28 2/149/2

v 5251.85 4390.26 181
vt -8.70317 0.393701
f 51/148/28 4/147/2 52/150/28

v 5251.85 4348.74 181
vt 8.70317 1.53379e-32
vt 8.70317 16.3456
f 4/7/3 53/151/3 52/152/3

f 4/7/3 5/6/3 53/151/3

vt 7.67479 4.44089e-16
vt 8.70317 0.393701
vn 0.0627905 -0.998027 -2.72411e-19
vt 7.67479 0.393701
f 50/153/27 53/154/29 5/155/27

v 5251.85 4348.74 180
vt 8.70317 4.44089e-16
f 53/154/29 50/153/27 54/156/29

vt -8.70317 1.87719e-47
f 50/145/15 51/146/15 54/157/15

v 5254.44 4389.93 180
vt -9.72344 16.2167
f 54/157/15 51/146/15 55/158/15

vt -6.58589 0.393701
vt -7.61427 4.535e-16
vn 0.187381 0.982287 -8.12937e-19
vt -6.58589 4.535e-16
f 52/159/28 55/160/30 51/161/28

v 5254.44 4389.93 181
vt -7.61427 0.393701
f 55/160/30 52/159/28 56/162/30

v 5254.44 4349.07 181
vt 9.72344 0.12889
vt 9.72344 16.2167
f 52/152/3 57/163/3 56/164/3

f 52/152/3 53/151/3 57/163/3

vt 8.63454 4.44682e-16
vt 9.66292 0.393701
vn 0.187381 -0.982287 -8.12937e-19
vt 8.63454 0.393701
f 54/165/29 57/166/31 53/167/29

v 5254.44 4349.07 180
vt 9.66292 4.44682e-16
f 57/166/31 54/165/29 58/168/31

vt -9.72344 0.12889
f 54/157/15 55/158/15 58/169/15

v 5256.97 4389.29 180
vt -10.7195 15.961
f 58/169/15 55/158/15 59/170/15

vt -5.38502 0.393701
vt -6.4134 4.63645e-16
vn 0.309017 0.951057 -1.34064e-18
vt -5.38502 4.63645e-16
f 56/171/30 59/172/32 55/173/30

v 5256.97 4389.29 181
vt -6.4134 0.393701
f 59/172/32 56/171/30 60/174/32

v 5256.97 4349.72 181
vt 10.7195 0.384638
vt 10.7195 15.961
f 56/164/3 61/175/3 60/176/3

f 56/164/3 57/163/3 61/175/3

vt 9.45001 4.46563e-16
vt 10.4784 0.393701
vn 0.309017 -0.951057 -1.34064e-18
vt 9.45001 0.393701
f 58/177/31 61/178/33 57/179/31

v 5256.97 4349.72 180
vt 10.4784 4.46563e-16
f 61/178/33 58/177/31 62/180/33

vt -10.7195 0.384638
f 58/169/15 59/170/15 62/181/15

v 5259.4 4388.32 180
vt -11.6757 15.5824
f 62/181/15 59/170/15 63/182/15

vt -4.09111 0.393701
vt -5.11949 4.74092e-16
vn 0.425779 0.904827 -1.84721e-18
vt -4.09111 4.74092e-16
f 60/183/32 63/184/34 59/185/32

v 5259.4 4388.32 181
vt -5.11949 0.393701
f 63/184/34 60/183/32 64/186/34

v 5259.4 4350.68 181
vt 11.6757 0.76321
vt 11.6757 15.5824
f 60/176/3 65/187/3 64/188/3

f 60/176/3 61/175/3 65/187/3

vt 10.1083 4.4982e-16
vt 11.1367 0.393701
vn 0.425779 -0.904827 -1.84721e-18
vt 10.1083 0.393701
f 62/189/33 65/190/35 61/191/33

v 5259.4 4350.68 180
vt 11.1367 4.4982e-16
f 65/190/35 62/189/33 66/192/35

vt -11.6757 0.76321
f 62/181/15 63/182/15 66/193/15

v 5261.69 4387.07 180
vt -12.5768 15.087
f 66/193/15 63/182/15 67/194/15

vt -2.72458 0.393701
vt -3.75296 4.84385e-16
vn 0.535827 0.844328 -2.32464e-18
vt -2.72458 4.84385e-16
f 64/195/34 67/196/36 63/197/34

v 5261.69 4387.07 181
vt -3.75296 0.393701
f 67/196/36 64/195/34 68/198/36

v 5261.69 4351.94 181
vt 12.5768 1.25864
vt 12.5768 15.087
f 64/188/3 69/199/3 68/200/3

f 64/188/3 65/187/3 69/199/3

vt 10.5991 4.54447e-16
vt 11.6275 0.393701
vn 0.535827 -0.844328 -2.32464e-18
vt 10.5991 0.393701
f 66/201/35 69/202/37 65/203/35

v 5261.69 4351.94 180
vt 11.6275 4.54447e-16
f 69/202/37 66/201/35 70/204/37

vt -12.5768 1.25864
f 66/193/15 67/194/15 70/205/15

v 5263.8 4385.53 180
vt -13.4088 14.4825
f 70/205/15 67/194/15 71/206/15

vt -1.30697 0.393701
vt -2.33535 4.94065e-16
vn 0.637424 0.770513 -2.76541e-18
vt -1.30697 4.94065e-16
f 68/207/36 71/208/38 67/209/36

v 5263.8 4385.53 181
vt -2.33535 0.393701
f 71/208/38 68/207/36 72/210/38

vt 13.4088 14.4825
f 68/200/3 69/199/3 72/211/3

v 5263.8 4353.48 181
vt 13.4088 1.8631
f 72/211/3 69/199/3 73/212/3

vt 10.9147 4.60344e-16
vt 11.9431 0.393701
vn 0.637424 -0.770513 -2.76541e-18
vt 10.9147 0.393701
f 70/213/37 73/214/39 69/215/37

v 5263.8 4353.48 180
vt 11.9431 4.60344e-16
f 73/214/39 70/213/37 74/216/39

vt -13.4088 1.8631
f 70/205/15 71/206/15 74/217/15

v 5265.71 4383.74 180
vt -14.1585 13.7786
f 74/217/15 71/206/15 75/218/15

vt 0.139362 0.393701
vt -0.889019 5.02703e-16
vn 0.728969 0.684547 -3.16256e-18
vt 0.139362 5.02703e-16
f 72/219/38 75/220/40 71/221/38

v 5265.71 4383.74 181
vt -0.889019 0.393701
f 75/220/40 72/219/38 76/222/40

v 5265.71 4355.26 181
vt 14.1585 2.56708
vt 14.1585 13.7786
f 72/211/3 77/223/3 76/224/3

f 72/211/3 73/212/3 77/223/3

vt 11.05 4.67316e-16
vt 12.0784 0.393701
vn 0.728969 -0.684547 -3.16256e-18
vt 11.05 0.393701
f 74/225/39 77/226/41 73/227/39

v 5265.71 4355.26 180
vt 12.0784 4.67316e-16
f 77/226/41 74/225/39 78/228/41

vt -14.1585 2.56708
f 74/217/15 75/218/15 78/229/15

v 5267.37 4381.73 180
vt -14.814 12.9862
f 78/229/15 75/218/15 79/230/15

vt 1.5916 5.09916e-16
v 5267.37 4381.73 181
vt 0.563224 0.393701
vn 0.809017 0.587785 -3.50985e-18
vt 0.563224 5.09916e-16
f 75/231/40 80/232/42 79/233/42

vt 1.5916 0.393701
f 80/232/42 75/231/40 76/234/40

v 5267.37 4357.28 181
vt 14.814 3.35946
vt 14.814 12.9862
f 76/224/3 81/235/3 80/236/3

f 76/224/3 77/223/3 81/235/3

vt 11.0029 0.393701
v 5267.37 4357.28 180
vt 12.0313 4.75087e-16
vn 0.809017 -0.587785 -3.50985e-18
vt 12.0313 0.393701
f 77/237/41 82/238/43 81/239/43

vt 11.0029 4.75087e-16
f 82/238/43 77/237/41 78/240/41

vt -14.814 3.35946
f 78/229/15 79/230/15 82/241/15

v 5268.77 4379.52 180
vt -15.365 12.1179
f 82/241/15 79/230/15 83/242/15

vt 3.02685 5.15395e-16
v 5268.77 4379.52 181
vt 1.99847 0.393701
vn 0.876307 0.481754 -3.80178e-18
vt 1.99847 5.15395e-16
f 79/243/42 84/244/44 83/245/44

vt 3.02685 0.393701
f 84/244/44 79/243/42 80/246/42

v 5268.77 4359.48 181
vt 15.365 4.22775
vt 15.365 12.1179
f 80/236/3 85/247/3 84/248/3

f 80/236/3 81/235/3 85/247/3

vt 10.7742 0.393701
v 5268.77 4359.48 180
vt 11.8026 4.83312e-16
vn 0.876307 -0.481754 -3.80178e-18
vt 11.8026 0.393701
f 81/249/43 86/250/45 85/251/45

vt 10.7742 4.83312e-16
f 86/250/45 81/249/43 82/252/43

vt -15.365 4.22775
f 82/241/15 83/242/15 86/253/15

v 5269.88 4377.16 180
vt -15.8029 11.1874
f 86/253/15 83/242/15 87/254/15

vt 4.42248 5.18918e-16
v 5269.88 4377.16 181
vt 3.3941 0.393701
vn 0.929776 0.368125 -4.03375e-18
vt 3.3941 5.18918e-16
f 83/255/44 88/256/46 87/257/46

vt 4.42248 0.393701
f 88/256/46 83/255/44 84/258/44

v 5269.88 4361.85 181
vt 15.8029 5.15825
vt 15.8029 11.1874
f 84/248/3 89/259/3 88/260/3

f 84/248/3 85/247/3 89/259/3

vt 10.3675 0.393701
v 5269.88 4361.85 180
vt 11.3959 4.91598e-16
vn 0.929776 -0.368125 -4.03375e-18
vt 11.3959 0.393701
f 85/261/45 90/262/47 89/263/47

vt 10.3675 4.91598e-16
f 90/262/47 85/261/45 86/264/45

vt -15.8029 5.15825
f 86/253/15 87/254/15 90/265/15

v 5270.69 4374.68 180
vt -16.1207 10.2093
f 90/265/15 87/254/15 91/266/15

vt 5.75647 5.20366e-16
v 5270.69 4374.68 181
vt 4.72809 0.393701
vn 0.968583 0.24869 -4.20211e-18
vt 4.72809 5.20366e-16
f 87/267/46 92/268/48 91/269/48

vt 5.75647 0.393701
f 92/268/48 87/267/46 88/270/46

v 5270.69 4364.33 181
vt 16.1207 6.1363
vt 16.1207 10.2093
f 88/260/3 93/271/3 92/272/3

f 88/260/3 89/259/3 93/271/3

vt 9.78915 0.393701
v 5270.69 4364.33 180
vt 10.8175 4.99525e-16
vn 0.968583 -0.24869 -4.20211e-18
vt 10.8175 0.393701
f 89/273/47 94/274/49 93/275/49

vt 9.78915 4.99525e-16
f 94/274/49 89/273/47 90/276/47

vt -16.1207 6.1363
f 90/265/15 91/266/15 94/277/15

v 5271.18 4372.11 180
vt -16.3134 9.19917
f 94/277/15 91/266/15 95/278/15

vt 7.00778 5.19724e-16
v 5271.18 4372.11 181
vt 5.9794 0.393701
vn 0.992115 0.125333 -4.3042e-18
vt 5.9794 5.19724e-16
f 91/279/48 96/280/50 95/281/50

vt 7.00778 0.393701
f 96/280/50 91/279/48 92/282/48

v 5271.18 4366.9 181
vt 16.3134 7.14647
vt 16.3134 9.19917
f 92/272/3 97/283/3 96/284/3

f 92/272/3 93/271/3 97/283/3

vt 9.04833 0.393701
v 5271.18 4366.9 180
vt 10.0767 5.06672e-16
vn 0.992115 -0.125333 -4.3042e-18
vt 10.0767 0.393701
f 93/285/49 98/286/51 97/287/51

vt 9.04833 5.06672e-16
f 98/286/51 93/285/49 94/288/49

vt -16.3134 7.14647
f 94/277/15 95/278/15 98/289/15

v 5271.34 4369.5 180
vt -16.378 8.17282
f 98/289/15 95/278/15 99/290/15

vt 8.15669 5.17085e-16
v 5271.34 4369.5 181
vt 7.12831 0.393701
vn 1 -8.69077e-16 -4.33841e-18
vt 7.12831 7.29961e-17
f 95/291/50 100/292/52 99/293/52

vt 8.15669 0.393701
f 100/292/52 95/291/50 96/294/50

vt 16.378 8.17282
f 96/284/3 97/283/3 100/295/3

vt 9.18507 6.85522e-17
vt 9.18507 0.393701
f 97/294/51 99/296/52 100/297/52

vt 8.15669 5.12641e-16
f 99/296/52 97/294/51 98/298/51

