# Alias OBJ Model File
# Exported from SketchUp, (c) 2000-2012 Trimble Navigation Limited
# File units = millimeters

mtllib btn_3_izrez.mtl

g Mesh1 Model

usemtl FrontColor
v 2605.64 3012.46 0
vt 102.584 118.601
vn 0 0 1
v 2605.62 3044.3 0
vt 102.583 119.855
v 2605.62 3012.65 0
vt 102.583 118.608
f 1/1/1 2/2/1 3/3/1

v 2640.72 3044.3 0
vt 103.965 119.855
f 2/2/1 1/1/1 4/4/1

v 2605.72 3012.28 0
vt 102.587 118.594
f 4/4/1 1/1/1 5/5/1

v 2605.84 3012.12 0
vt 102.592 118.588
f 4/4/1 5/5/1 6/6/1

v 2605.99 3012 0
vt 102.598 118.583
f 4/4/1 6/6/1 7/7/1

v 2606.18 3011.93 0
vt 102.605 118.58
f 4/4/1 7/7/1 8/8/1

v 2606.37 3011.9 0
vt 102.613 118.579
f 4/4/1 8/8/1 9/9/1

v 2639.73 3038.66 0
vt 103.926 119.632
f 4/4/1 9/9/1 10/10/1

v 2639.6 3037.82 0
vt 103.921 119.599
f 10/10/1 9/9/1 11/11/1

v 2639.48 3036.97 0
vt 103.917 119.566
f 11/11/1 9/9/1 12/12/1

v 2639.39 3036.13 0
vt 103.913 119.532
f 12/12/1 9/9/1 13/13/1

v 2639.31 3035.28 0
vt 103.91 119.499
f 13/13/1 9/9/1 14/14/1

v 2639.26 3034.42 0
vt 103.908 119.466
f 14/14/1 9/9/1 15/15/1

v 2639.23 3033.57 0
vt 103.907 119.432
f 15/15/1 9/9/1 16/16/1

v 2638.47 3011.9 0
vt 103.877 118.579
f 16/16/1 9/9/1 17/17/1

v 2638.66 3011.93 0
vt 103.884 118.58
f 16/16/1 17/17/1 18/18/1

v 2638.84 3012 0
vt 103.892 118.583
f 16/16/1 18/18/1 19/19/1

v 2639.22 3032.72 0
vt 103.906 119.398
f 16/16/1 19/19/1 20/20/1

v 2639 3012.12 0
vt 103.898 118.588
f 20/20/1 19/19/1 21/21/1

v 2639.12 3012.28 0
vt 103.902 118.594
f 20/20/1 21/21/1 22/22/1

v 2639.19 3012.46 0
vt 103.905 118.601
f 20/20/1 22/22/1 23/23/1

v 2639.22 3012.65 0
vt 103.906 118.608
f 20/20/1 23/23/1 24/24/1

v 2639.89 3039.5 0
vt 103.933 119.665
f 4/4/1 10/10/1 25/25/1

v 2640.07 3040.33 0
vt 103.94 119.698
f 4/4/1 25/25/1 26/26/1

v 2640.26 3041.16 0
vt 103.947 119.731
f 4/4/1 26/26/1 27/27/1

v 2640.48 3041.99 0
vt 103.956 119.763
f 4/4/1 27/27/1 28/28/1

v 2640.72 3042.8 0
vt 103.965 119.795
f 4/4/1 28/28/1 29/29/1

