# Alias OBJ Model File
# Exported from SketchUp, (c) 2000-2012 Trimble Navigation Limited
# File units = millimeters

mtllib btn_3_top.mtl

g Mesh1 Difference Model

usemtl FrontColor
v 3468.47 3301.07 5.3
vt 0.0930467 2.08661
vn -0.5 -0.866025 0
v 3468.32 3301.19 1.24868e-11
vt 0.0159643 0
vn -0.707107 -0.707107 0
v 3468.47 3301.07 1.24868e-11
vt 0.0930467 0
f 1/1/1 2/2/2 3/3/1

v 3468.32 3301.19 5.3
vt 0.0159643 2.08661
f 2/2/2 1/1/1 4/4/2

v 3503.2 3333.37 5.3
vt 13.8189 12.7559
vn 0 0 1
vt 0.0864842 0.0864842
vt 0.147638 0.0395594
f 5/5/3 4/6/3 1/7/3

v 3468.2 3301.35 5.3
vt 0.0395594 0.147638
f 5/5/3 6/8/3 4/6/3

v 3468.12 3301.53 5.3
vt 0.0100613 0.218853
f 5/5/3 7/9/3 6/8/3

v 3468.1 3333.37 5.3
vt 0 12.7559
f 8/10/3 7/9/3 5/5/3

v 3468.1 3301.72 5.3
vt 0 0.295276
f 7/9/3 8/10/3 9/11/3

vt -12.7559 2.08661
vn -1 0 0
v 3468.1 3301.72 1.24868e-11
vt -0.295276 0
vt -0.295276 2.08661
f 8/12/4 10/13/4 9/14/4

v 3468.1 3333.37 1.24868e-11
vt -12.7559 0
f 10/13/4 8/12/4 11/15/4

vt 0 2.08661
vn 0 1 0
v 3503.2 3333.37 1.24868e-11
vt -13.8189 0
vt 0 0
f 8/16/5 12/17/5 11/18/5

vt -13.8189 2.08661
f 12/17/5 8/16/5 5/19/5

v 3503.2 3331.87 5.3
vt 12.1654 2.08661
vn 1 -2.40637e-14 0
vt 12.7559 0
vt 12.7559 2.08661
f 13/20/6 12/21/6 5/22/6

v 3503.2 3331.87 1.24868e-11
vt 12.1654 0
f 12/21/6 13/20/6 14/23/6

v 3502.96 3331.05 5.3
vt 15.2046 2.08661
vn 0.963582 -0.267414 0
vt 15.5403 0
vn 0.960218 -0.27925 0
vt 15.5403 2.08661
f 15/24/7 14/25/8 13/26/8

v 3502.96 3331.05 1.24868e-11
vt 15.2046 0
f 14/25/8 15/24/7 16/27/7

v 3502.74 3330.23 5.3
vt 14.6214 2.08661
vn 0.96987 -0.243622 0
vt 14.9571 0
vt 14.9571 2.08661
f 17/28/9 16/29/7 15/30/7

v 3502.74 3330.23 1.24868e-11
vt 14.6214 0
f 16/29/7 17/28/9 18/31/9

v 3502.54 3329.4 5.3
vt 14.0292 2.08661
vn 0.975572 -0.219682 0
vt 14.3649 0
vt 14.3649 2.08661
f 19/32/10 18/33/9 17/34/9

v 3502.54 3329.4 1.24868e-11
vt 14.0292 0
f 18/33/9 19/32/10 20/35/10

v 3502.37 3328.56 5.3
vt 13.4284 2.08661
vn 0.980682 -0.195609 0
vt 13.7641 0
vt 13.7641 2.08661
f 21/36/11 20/37/10 19/38/10

v 3502.37 3328.56 1.24868e-11
vt 13.4284 0
f 20/37/10 21/36/11 22/39/11

v 3502.21 3327.73 5.3
vt 12.8194 2.08661
vn 0.985198 -0.171418 0
vt 13.1551 0
vt 13.1551 2.08661
f 23/40/12 22/41/11 21/42/11

v 3502.21 3327.73 1.24868e-11
vt 12.8194 0
f 22/41/11 23/40/12 24/43/12

v 3502.07 3326.88 5.3
vt 12.2025 2.08661
vn 0.989118 -0.147123 0
vt 12.5382 0
vt 12.5382 2.08661
f 25/44/13 24/45/12 23/46/12

v 3502.07 3326.88 1.24868e-11
vt 12.2025 0
f 24/45/12 25/44/13 26/47/13

v 3501.96 3326.04 5.3
vt 11.5781 2.08661
vn 0.992439 -0.122739 0
vt 11.9138 0
vt 11.9138 2.08661
f 27/48/14 26/49/13 25/50/13

v 3501.96 3326.04 1.24868e-11
vt 11.5781 0
f 26/49/13 27/48/14 28/51/14

v 3501.86 3325.19 5.3
vt 10.9466 2.08661
vn 0.995159 -0.0982804 0
vt 11.2823 0
vt 11.2823 2.08661
f 29/52/15 28/53/14 27/54/14

v 3501.86 3325.19 1.24868e-11
vt 10.9466 0
f 28/53/14 29/52/15 30/55/15

v 3501.79 3324.34 5.3
vt 10.3084 2.08661
vn 0.997276 -0.0737624 0
vt 10.6441 0
vt 10.6441 2.08661
f 31/56/16 30/57/15 29/58/15

v 3501.79 3324.34 1.24868e-11
vt 10.3084 0
f 30/57/15 31/56/16 32/59/16

v 3501.74 3323.49 5.3
vt 9.6638 2.08661
vn 0.998789 -0.0491998 0
vt 9.99951 0
vt 9.99951 2.08661
f 33/60/17 32/61/16 31/62/16

v 3501.74 3323.49 1.24868e-11
vt 9.6638 0
f 32/61/16 33/60/17 34/63/17

v 3501.71 3322.64 5.3
vt 9.01327 2.08661
vn 0.999697 -0.0246073 0
vt 9.34898 0
vt 9.34898 2.08661
f 35/64/18 34/65/17 33/66/17

v 3501.71 3322.64 1.24868e-11
vt 9.01327 0
f 34/65/17 35/64/18 36/67/18

v 3501.7 3321.79 5.3
vt 8.35719 2.08661
vn 0.999924 -0.0123046 0
vt 8.6929 0
vt 8.6929 2.08661
f 37/68/19 36/69/18 35/70/18

v 3501.7 3321.79 1.24868e-11
vt 8.35719 0
f 36/69/18 37/68/19 38/71/19

v 3501.7 3301.72 5.3
vt 0.295276 2.08661
vn 1 0 0
vt 8.19504 0
vt 8.19504 2.08661
f 39/72/20 38/73/20 37/74/20

v 3501.7 3301.72 1.24868e-11
vt 0.295276 0
f 38/73/20 39/72/20 40/75/20

v 3501.67 3301.53 5.3
vt 1.94231 2.08661
vn 0.965926 -0.258819 0
vt 2.0194 0
vn 0.991445 -0.130526 0
vt 2.0194 2.08661
f 41/76/21 40/77/22 39/78/22

v 3501.67 3301.53 1.24868e-11
vt 1.94231 0
f 40/77/22 41/76/21 42/79/21

v 3501.6 3301.35 5.3
vt 5.18353 2.08661
vn 0.866025 -0.5 0
vt 5.26061 0
vt 5.26061 2.08661
f 43/80/23 42/81/21 41/82/21

v 3501.6 3301.35 1.24868e-11
vt 5.18353 0
f 42/81/21 43/80/23 44/83/23

v 3501.48 3301.19 5.3
vt 8.06887 2.08661
vn 0.707107 -0.707107 0
vt 8.14595 0
vt 8.14595 2.08661
f 45/84/24 44/85/23 43/86/23

v 3501.48 3301.19 1.24868e-11
vt 8.06887 0
f 44/85/23 45/84/24 46/87/24

vt 10.4788 2.08661
v 3501.32 3301.07 1.24868e-11
vt 10.4017 0
vn 0.5 -0.866025 0
vt 10.4788 0
f 45/88/24 47/89/25 46/90/24

v 3501.32 3301.07 5.3
vt 10.4017 2.08661
f 47/89/25 45/88/24 48/91/25

vt 13.2283 8.19504
vt 13.0807 0.0395594
vt 13.1419 0.0864842
f 37/92/3 48/93/3 45/94/3

vt 13.2325 8.53072
f 35/95/3 48/93/3 37/92/3

v 3501.14 3301 5.3
vt 13.0095 0.0100613
f 35/95/3 49/96/3 48/93/3

v 3500.95 3300.97 5.3
vt 12.9331 0
f 35/95/3 50/97/3 49/96/3

v 3468.85 3300.97 5.3
vt 0.295276 1.42109e-14
f 35/95/3 51/98/3 50/97/3

vt 13.2449 8.8662
f 33/99/3 51/98/3 35/95/3

vt 13.2655 9.20128
f 31/100/3 51/98/3 33/99/3

vt 13.2944 9.53574
f 29/101/3 51/98/3 31/100/3

vt 13.3315 9.8694
f 27/102/3 51/98/3 29/101/3

vt 13.3768 10.202
f 25/103/3 51/98/3 27/102/3

vt 13.4303 10.5335
f 23/104/3 51/98/3 25/103/3

f 5/5/3 51/98/3 23/104/3

v 3468.65 3301 5.3
vt 0.218853 0.0100613
f 5/5/3 52/105/3 51/98/3

f 5/5/3 1/7/3 52/105/3

vt 0.121261 0
vt 0.198343 2.08661
vn -0.258819 -0.965926 0
vt 0.121261 2.08661
f 3/106/1 52/107/26 1/108/1

v 3468.65 3301 1.24868e-11
vt 0.198343 0
f 52/107/26 3/106/1 53/109/26

vt -0.147638 0.0395594
vn 7.43268e-33 -1.83944e-32 -1
v 3469.62 3331.87 1.24868e-11
vt -0.599646 12.1654
vt -0.218853 0.0100613
f 3/110/27 54/111/27 53/112/27

vt -0.0864842 0.0864842
f 2/113/27 54/111/27 3/110/27

v 3468.2 3301.35 1.24868e-11
vt -0.0395594 0.147638
f 55/114/27 54/111/27 2/113/27

v 3468.12 3301.53 1.24868e-11
vt -0.0100613 0.218853
f 56/115/27 54/111/27 55/114/27

f 10/11/27 54/111/27 56/115/27

f 11/10/27 54/111/27 10/11/27

vt -13.8189 12.7559
f 54/111/27 11/10/27 12/116/27

v 3500.15 3331.87 1.24868e-11
vt -12.6213 12.1654
f 54/111/27 12/116/27 57/117/27

vt -13.4303 10.5335
f 57/117/27 12/116/27 24/118/27

vt -13.4919 10.8635
f 24/118/27 12/116/27 22/119/27

vt -13.5616 11.1919
f 22/119/27 12/116/27 20/120/27

vt -13.6394 11.5184
f 20/120/27 12/116/27 18/121/27

vt -13.7252 11.843
f 18/121/27 12/116/27 16/122/27

vt -13.8189 12.1654
f 16/122/27 12/116/27 14/123/27

vt -13.3768 10.202
f 57/117/27 24/118/27 26/124/27

v 3500.15 3313.22 1.24868e-11
vt -12.6213 4.82153
f 57/117/27 26/124/27 58/125/27

vt -13.3315 9.8694
f 58/125/27 26/124/27 28/126/27

v 3500.15 3312.22 1.24868e-11
vt -12.6213 4.42783
f 58/125/27 28/126/27 59/127/27

vt -13.2944 9.53574
f 59/127/27 28/126/27 30/128/27

vt -13.2655 9.20128
f 59/127/27 30/128/27 32/129/27

v 3500.15 3303.75 1.24868e-11
vt -12.6213 1.09299
f 59/127/27 32/129/27 60/130/27

vt -13.2449 8.8662
f 60/130/27 32/129/27 34/131/27

vt -13.2325 8.53072
f 60/130/27 34/131/27 36/132/27

v 3500.95 3300.97 1.24868e-11
vt -12.9331 1.76821e-63
f 60/130/27 36/132/27 61/133/27

v 3501.14 3301 1.24868e-11
vt -13.0095 0.0100613
f 61/133/27 36/132/27 62/134/27

vt -13.0807 0.0395594
f 62/134/27 36/132/27 47/135/27

vt -13.2283 8.19504
f 47/135/27 36/132/27 38/136/27

vt -13.1419 0.0864842
f 47/135/27 38/136/27 46/137/27

vt -13.1888 0.147638
f 46/137/27 38/136/27 44/138/27

vt -13.2183 0.218853
f 44/138/27 38/136/27 42/139/27

vt -13.2283 0.295276
f 40/140/27 42/139/27 38/136/27

vt 12.1001 2.08661
vt 12.0231 0
vn 0.258819 -0.965926 0
vt 12.1001 0
f 48/141/25 62/142/28 47/143/25

vt 12.0231 2.08661
f 62/142/28 48/141/25 49/144/28

vt 12.8995 2.08661
vt 12.8224 0
vn 0.130526 -0.991445 0
vt 12.8995 0
f 49/145/28 61/146/29 62/147/28

vt 12.8224 2.08661
f 61/146/29 49/145/28 50/148/29

vt 12.9331 2.08661
vn -5.88808e-16 -1 -1.79945e-31
v 3468.85 3300.97 1.24868e-11
vt 0.295276 -2.58846e-45
vt 12.9331 -1.3703e-45
f 50/149/30 63/150/30 61/151/30

f 63/150/30 50/149/30 51/72/30

vt 0.292749 2.08661
vn -0.130526 -0.991445 0
vt 0.215667 0
vt 0.292749 0
f 51/152/31 53/153/26 63/154/31

vt 0.215667 2.08661
f 53/153/26 51/152/31 52/155/26

vt -0.295276 1.42109e-14
f 53/112/27 54/111/27 63/156/27

v 3469.62 3303.75 1.24868e-11
vt -0.599646 1.09299
f 64/157/27 63/156/27 54/111/27

f 63/156/27 64/157/27 61/133/27

f 61/133/27 64/157/27 60/130/27

v 3469.62 3303.98 0.314605
vt -0.599646 0.795543
vn 4.67125e-14 0.770513 -0.637424
vt -12.6213 0.642443
vn 4.30569e-14 0.809017 -0.587785
vt -0.599646 0.642443
f 65/158/32 60/159/33 64/160/33

v 3500.15 3303.98 0.314605
vt -12.6213 0.795543
f 60/159/33 65/158/32 66/161/32

v 3469.62 3304.42 0.790637
vt -0.599646 1.15719
vn 5.34403e-14 0.684547 -0.728969
vt -12.6213 0.900095
vt -0.599646 0.900095
f 67/162/34 66/163/32 65/164/32

v 3500.15 3304.42 0.790637
vt -12.6213 1.15719
f 66/163/32 67/162/34 68/165/34

vt -0.599646 1.24552
v 3500.15 3304.93 1.20689
vt -12.6213 1.50262
vn 5.93086e-14 0.587785 -0.809017
vt -12.6213 1.24552
f 67/166/34 69/167/35 68/168/34

v 3469.62 3304.93 1.20689
vt -0.599646 1.50262
f 69/167/35 67/166/34 70/169/35

vt 1.35897 0.311274
vn 1 6.68085e-27 8.19039e-14
v 3469.62 3312.22 1.24868e-11
vt 4.42783 -4.91133e-14
vt 1.55707 0.475153
f 67/170/36 71/171/36 70/172/36

vt 1.18298 0.12386
f 65/173/36 71/171/36 67/170/36

vt 1.09299 -4.91133e-14
f 71/171/36 65/173/36 64/174/36

v 3469.62 3313.22 1.24868e-11
vt -0.599646 4.82153
vt -0.599646 4.42783
f 64/157/27 72/175/27 71/176/27

f 64/157/27 54/111/27 72/175/27

v 3469.62 3313.22 4.2
vt 4.82153 1.65354
vt 4.82153 0
f 54/23/20 73/177/20 72/178/20

v 3469.62 3331.87 4.2
vt 12.1654 1.65354
f 73/177/20 54/23/20 74/179/20

vt 0.599646 0
vn 0 -1 0
v 3500.15 3331.87 4.2
vt 12.6213 1.65354
vt 0.599646 1.65354
f 54/180/37 75/181/37 74/182/37

vt 12.6213 0
f 75/181/37 54/180/37 57/183/37

vt -4.82153 0
vt -12.1654 1.65354
vt -12.1654 0
f 58/184/4 75/185/4 57/186/4

v 3500.15 3313.22 4.2
vt -4.82153 1.65354
f 75/185/4 58/184/4 76/187/4

vt -12.6213 0
vt -0.599646 1.65354
vt -12.6213 1.65354
f 58/188/5 73/189/5 76/190/5

vt -0.599646 0
f 73/189/5 58/188/5 72/191/5

f 58/125/27 71/176/27 72/175/27

f 71/176/27 58/125/27 59/127/27

v 3500.15 3311.99 0.314605
vt 12.6213 -2.44951
vn 4.64731e-14 -0.770513 -0.637424
vt 0.599646 -2.60261
vn 4.2579e-14 -0.809017 -0.587785
vt 12.6213 -2.60261
f 77/192/38 71/193/39 59/194/39

v 3469.62 3311.99 0.314605
vt 0.599646 -2.44951
f 71/193/39 77/192/38 78/195/38

vt 12.6213 -2.87916
v 3469.62 3311.54 0.790637
vt 0.599646 -2.62207
vn 5.34403e-14 -0.684547 -0.728969
vt 0.599646 -2.87916
f 77/196/38 79/197/40 78/198/38

v 3500.15 3311.54 0.790637
vt 12.6213 -2.62207
f 79/197/40 77/196/38 80/199/40

vt -4.42783 -9.65618e-13
vn -1 -6.24572e-27 -7.65067e-14
vt -4.16184 0.311274
vt -4.33784 0.12386
f 59/200/41 80/201/41 77/202/41

v 3500.15 3311.04 1.20689
vt -3.96375 0.475153
f 59/200/41 81/203/41 80/201/41

v 3500.15 3310.49 1.55679
vt -3.74668 0.612911
f 59/200/41 82/204/41 81/203/41

v 3500.15 3309.9 1.83484
vt -3.51405 0.722377
f 59/200/41 83/205/41 82/204/41

v 3500.15 3309.28 2.03663
vt -3.26954 0.801824
f 59/200/41 84/206/41 83/205/41

v 3500.15 3308.63 2.159
vt -3.017 0.849999
f 59/200/41 85/207/41 84/206/41

v 3500.15 3307.98 2.2
vt -2.76041 0.866142
f 59/200/41 86/208/41 85/207/41

v 3500.15 3307.33 2.159
vt -2.50382 0.849999
f 59/200/41 87/209/41 86/208/41

v 3500.15 3306.69 2.03663
vt -2.25128 0.801824
f 59/200/41 88/210/41 87/209/41

v 3500.15 3306.07 1.83484
vt -2.00677 0.722377
f 59/200/41 89/211/41 88/210/41

v 3500.15 3305.48 1.55679
vt -1.77414 0.612911
f 59/200/41 90/212/41 89/211/41

vt -1.55707 0.475153
f 59/200/41 69/213/41 90/212/41

vt -1.35897 0.311274
f 59/200/41 68/214/41 69/213/41

vt -1.18298 0.12386
f 59/200/41 66/215/41 68/214/41

vt -1.09299 -9.65618e-13
f 66/215/41 59/200/41 60/216/41

vt -0.599646 1.56928
vt -12.6213 1.82637
vn 6.42415e-14 0.481754 -0.876307
vt -12.6213 1.56928
f 70/217/35 90/218/42 69/219/35

v 3469.62 3305.48 1.55679
vt -0.599646 1.82637
f 90/218/42 70/217/35 91/220/42

vt 1.77414 0.612911
f 70/172/36 71/171/36 91/221/36

v 3469.62 3306.07 1.83484
vt 2.00677 0.722377
f 91/221/36 71/171/36 92/222/36

v 3469.62 3306.69 2.03663
vt 2.25128 0.801824
f 92/222/36 71/171/36 93/223/36

v 3469.62 3307.33 2.159
vt 2.50382 0.849999
f 93/223/36 71/171/36 94/224/36

v 3469.62 3307.98 2.2
vt 2.76041 0.866142
f 94/224/36 71/171/36 95/225/36

v 3469.62 3308.63 2.159
vt 3.017 0.849999
f 95/225/36 71/171/36 96/226/36

v 3469.62 3309.28 2.03663
vt 3.26954 0.801824
f 96/226/36 71/171/36 97/227/36

v 3469.62 3309.9 1.83484
vt 3.51405 0.722377
f 97/227/36 71/171/36 98/228/36

v 3469.62 3310.49 1.55679
vt 3.74668 0.612911
f 98/228/36 71/171/36 99/229/36

v 3469.62 3311.04 1.20689
vt 3.96375 0.475153
f 99/229/36 71/171/36 100/230/36

vt 4.16184 0.311274
f 100/230/36 71/171/36 79/231/36

vt 4.33784 0.12386
f 79/231/36 71/171/36 78/232/36

vt 0.599646 -3.00834
vt 12.6213 -2.75125
vn 5.93086e-14 -0.587785 -0.809017
vt 0.599646 -2.75125
f 79/233/40 81/234/43 100/235/43

vt 12.6213 -3.00834
f 81/234/43 79/233/40 80/236/40

vt 12.6213 -2.83501
vn 6.42415e-14 -0.481754 -0.876307
vt 0.599646 -3.0921
vt 12.6213 -3.0921
f 82/237/44 100/238/43 81/239/43

vt 0.599646 -2.83501
f 100/238/43 82/237/44 99/240/44

vt 12.6213 -3.12913
vt 0.599646 -2.87203
vn 6.81614e-14 -0.368125 -0.929776
vt 0.599646 -3.12913
f 82/241/44 98/242/45 99/243/44

vt 12.6213 -2.87203
f 98/242/45 82/241/44 83/244/45

vt 12.6213 -2.86174
vn 7.10063e-14 -0.24869 -0.968583
vt 0.599646 -3.11883
vt 12.6213 -3.11883
f 84/245/46 98/246/45 83/247/45

vt 0.599646 -2.86174
f 98/246/45 84/245/46 97/248/46

vt 12.6213 -3.06138
vt 0.599646 -2.80428
vn 7.27313e-14 -0.125333 -0.992115
vt 0.599646 -3.06138
f 84/249/46 96/250/47 97/251/46

vt 12.6213 -2.80428
f 96/250/47 84/249/46 85/252/47

vt 12.6213 -2.95767
vt 0.599646 -2.70058
vn 7.33094e-14 -1.10686e-13 -1
vt 0.599646 -2.95767
f 85/253/47 95/254/48 96/255/47

vt 12.6213 -2.70058
f 95/254/48 85/253/47 86/256/48

vt -12.6213 2.80935
vt -0.599646 2.55225
vn 7.27313e-14 0.125333 -0.992115
vt -0.599646 2.80935
f 86/257/48 94/258/49 95/259/48

vt -12.6213 2.55225
f 94/258/49 86/257/48 87/260/49

vt -12.6213 2.61874
vt -0.599646 2.36165
vn 7.10063e-14 0.24869 -0.968583
vt -0.599646 2.61874
f 87/261/49 93/262/50 94/263/49

vt -12.6213 2.36165
f 93/262/50 87/261/49 88/264/50

vt -12.6213 2.38887
vt -0.599646 2.13178
vn 6.81614e-14 0.368125 -0.929776
vt -0.599646 2.38887
f 88/265/50 92/266/51 93/267/50

vt -12.6213 2.13178
f 92/266/51 88/265/50 89/268/51

vt -12.6213 2.12335
vt -0.599646 1.86626
vt -0.599646 2.12335
f 89/269/51 91/270/42 92/271/51

vt -12.6213 1.86626
f 91/270/42 89/269/51 90/272/42

vn 0 0 -1
f 73/175/52 75/117/52 76/125/52

f 75/117/52 73/175/52 74/111/52

vt -0.215667 0
vn -0.965926 -0.258819 0
vt -0.292749 2.08661
vn -0.991445 -0.130526 0
vt -0.292749 0
f 56/273/53 9/274/54 10/275/54

vt -0.215667 2.08661
f 9/274/54 56/273/53 7/276/53

vt -0.121261 0
vn -0.866025 -0.5 0
vt -0.198343 2.08661
vt -0.198343 0
f 55/277/55 7/278/53 56/279/53

vt -0.121261 2.08661
f 7/278/53 55/277/55 6/280/55

vt -0.0159643 0
vt -0.0930467 2.08661
vt -0.0930467 0
f 2/281/2 6/282/55 55/283/55

vt -0.0159643 2.08661
f 6/282/55 2/281/2 4/284/2

vt 13.4919 10.8635
f 5/5/3 23/104/3 21/285/3

vt 13.5616 11.1919
f 5/5/3 21/285/3 19/286/3

vt 13.6394 11.5184
f 5/5/3 19/286/3 17/287/3

vt 13.7252 11.843
f 5/5/3 17/287/3 15/288/3

vt 13.8189 12.1654
f 5/5/3 15/288/3 13/289/3

vt 13.1888 0.147638
f 37/92/3 45/94/3 43/290/3

vt 13.2183 0.218853
f 37/92/3 43/290/3 41/291/3

vt 13.2283 0.295276
f 37/92/3 41/291/3 39/292/3

