%TF.GenerationSoftware,KiCad,Pcbnew,(6.0.8)*%
%TF.CreationDate,2022-10-18T22:13:10+02:00*%
%TF.ProjectId,test_project_1,74657374-5f70-4726-9f6a-6563745f312e,rev?*%
%TF.SameCoordinates,Original*%
%TF.FileFunction,Drillmap*%
%TF.FilePolarity,Positive*%
%FSLAX45Y45*%
G04 Gerber Fmt 4.5, Leading zero omitted, Abs format (unit mm)*
G04 Created by KiCad (PCBNEW (6.0.8)) date 2022-10-18 22:13:10*
%MOMM*%
%LPD*%
G01*
G04 APERTURE LIST*
%ADD10C,0.020000*%
%ADD11C,0.200000*%
G04 APERTURE END LIST*
D10*
X10088461Y-8874799D02*
X10088461Y-7981413D01*
X17226683Y-10991881D02*
X17233481Y-10843646D01*
X17200074Y-11137867D02*
X17226683Y-10991881D01*
X17154134Y-11278967D02*
X17200074Y-11137867D01*
X17089693Y-11412635D02*
X17154134Y-11278967D01*
X17007913Y-11536457D02*
X17089693Y-11412635D01*
X16910271Y-11648197D02*
X17007913Y-11536457D01*
X16798531Y-11745839D02*
X16910271Y-11648197D01*
X16674709Y-11827618D02*
X16798531Y-11745839D01*
X16541041Y-11892060D02*
X16674709Y-11827618D01*
X16399941Y-11938000D02*
X16541041Y-11892060D01*
X16253955Y-11964609D02*
X16399941Y-11938000D01*
X16105720Y-11971406D02*
X16253955Y-11964609D01*
X10095258Y-10991881D02*
X10088461Y-10843646D01*
X10121867Y-11137867D02*
X10095258Y-10991881D01*
X10167807Y-11278967D02*
X10121867Y-11137867D01*
X10232248Y-11412635D02*
X10167807Y-11278967D01*
X10314028Y-11536457D02*
X10232248Y-11412635D01*
X10411670Y-11648197D02*
X10314028Y-11536457D01*
X10523410Y-11745839D02*
X10411670Y-11648197D01*
X10647232Y-11827618D02*
X10523410Y-11745839D01*
X10780900Y-11892060D02*
X10647232Y-11827618D01*
X10922000Y-11938000D02*
X10780900Y-11892060D01*
X11067986Y-11964609D02*
X10922000Y-11938000D01*
X11216220Y-11971406D02*
X11067986Y-11964609D01*
X10098141Y-5865376D02*
X10088461Y-6012566D01*
X10126944Y-5720707D02*
X10098141Y-5865376D01*
X10174379Y-5581034D02*
X10126944Y-5720707D01*
X10239634Y-5448744D02*
X10174379Y-5581034D01*
X10321593Y-5326100D02*
X10239634Y-5448744D01*
X10418854Y-5215200D02*
X10321593Y-5326100D01*
X10529755Y-5117938D02*
X10418854Y-5215200D01*
X10652398Y-5035980D02*
X10529755Y-5117938D01*
X10784688Y-4970725D02*
X10652398Y-5035980D01*
X10924361Y-4923290D02*
X10784688Y-4970725D01*
X11069030Y-4894486D02*
X10924361Y-4923290D01*
X11216220Y-4884806D02*
X11069030Y-4894486D01*
X16253437Y-4893046D02*
X16105720Y-4884806D01*
X16398766Y-4920754D02*
X16253437Y-4893046D01*
X16539153Y-4967442D02*
X16398766Y-4920754D01*
X16672130Y-5032290D02*
X16539153Y-4967442D01*
X16795361Y-5114158D02*
X16672130Y-5032290D01*
X16906679Y-5211607D02*
X16795361Y-5114158D01*
X17004129Y-5322926D02*
X16906679Y-5211607D01*
X17085997Y-5446156D02*
X17004129Y-5322926D01*
X17150845Y-5579134D02*
X17085997Y-5446156D01*
X17197533Y-5719520D02*
X17150845Y-5579134D01*
X17225240Y-5864849D02*
X17197533Y-5719520D01*
X17233481Y-6012566D02*
X17225240Y-5864849D01*
X11767914Y-10843646D02*
X13214278Y-10843646D01*
X14107663Y-10843646D02*
X15554027Y-10843646D01*
X17233481Y-10843646D02*
X17233481Y-10321163D01*
X16105720Y-8874799D02*
X16105720Y-10321163D01*
X16105720Y-6535050D02*
X16105720Y-7981413D01*
X16105720Y-4884806D02*
X15554027Y-4884806D01*
X11216220Y-6535050D02*
X11216220Y-7981413D01*
X11216220Y-8874799D02*
X11216220Y-10321163D01*
X11216220Y-11971406D02*
X11767914Y-11971406D01*
X15554027Y-6012566D02*
X14107663Y-6012566D01*
X13214278Y-6012566D02*
X11767914Y-6012566D01*
X10088461Y-6012566D02*
X10088461Y-6535050D01*
X10088461Y-10321163D02*
X10088461Y-10843646D01*
X15554027Y-11971406D02*
X16105720Y-11971406D01*
X14107663Y-4884806D02*
X13214278Y-4884806D01*
X11767914Y-4884806D02*
X11216220Y-4884806D01*
X17233481Y-8874799D02*
X17233481Y-7981413D01*
X17233481Y-6535050D02*
X17233481Y-6012566D01*
X13214278Y-11971406D02*
X14107663Y-11971406D01*
X17233481Y-8874799D02*
X16105720Y-8874799D01*
X17233481Y-7981413D02*
X16105720Y-7981413D01*
X16105720Y-10321163D02*
X17233481Y-10321163D01*
X16105720Y-6535050D02*
X17233481Y-6535050D01*
X13214278Y-11971406D02*
X13214278Y-10843646D01*
X13214278Y-4884806D02*
X13214278Y-6012566D01*
X15554027Y-6012566D02*
X15554027Y-4884806D01*
X14107663Y-4884806D02*
X14107663Y-6012566D01*
X11767914Y-6012566D02*
X11767914Y-4884806D01*
X11216220Y-6535050D02*
X10088461Y-6535050D01*
X11216220Y-10321163D02*
X10088461Y-10321163D01*
X10088461Y-7981413D02*
X11216220Y-7981413D01*
X11767914Y-10843646D02*
X11767914Y-11971406D01*
X10088461Y-8874799D02*
X11216220Y-8874799D01*
X15554027Y-10843646D02*
X15554027Y-11971406D01*
X14107663Y-11971406D02*
X14107663Y-10843646D01*
D11*
X10345080Y-12282882D02*
X10345080Y-12082882D01*
X10392699Y-12082882D01*
X10421270Y-12092406D01*
X10440318Y-12111454D01*
X10449841Y-12130501D01*
X10459365Y-12168597D01*
X10459365Y-12197168D01*
X10449841Y-12235263D01*
X10440318Y-12254311D01*
X10421270Y-12273358D01*
X10392699Y-12282882D01*
X10345080Y-12282882D01*
X10545080Y-12282882D02*
X10545080Y-12149549D01*
X10545080Y-12187644D02*
X10554603Y-12168597D01*
X10564127Y-12159073D01*
X10583175Y-12149549D01*
X10602222Y-12149549D01*
X10668889Y-12282882D02*
X10668889Y-12149549D01*
X10668889Y-12082882D02*
X10659365Y-12092406D01*
X10668889Y-12101930D01*
X10678413Y-12092406D01*
X10668889Y-12082882D01*
X10668889Y-12101930D01*
X10792699Y-12282882D02*
X10773651Y-12273358D01*
X10764127Y-12254311D01*
X10764127Y-12082882D01*
X10897461Y-12282882D02*
X10878413Y-12273358D01*
X10868889Y-12254311D01*
X10868889Y-12082882D01*
X11126032Y-12282882D02*
X11126032Y-12082882D01*
X11192698Y-12225739D01*
X11259365Y-12082882D01*
X11259365Y-12282882D01*
X11440318Y-12282882D02*
X11440318Y-12178120D01*
X11430794Y-12159073D01*
X11411746Y-12149549D01*
X11373651Y-12149549D01*
X11354603Y-12159073D01*
X11440318Y-12273358D02*
X11421270Y-12282882D01*
X11373651Y-12282882D01*
X11354603Y-12273358D01*
X11345079Y-12254311D01*
X11345079Y-12235263D01*
X11354603Y-12216216D01*
X11373651Y-12206692D01*
X11421270Y-12206692D01*
X11440318Y-12197168D01*
X11535556Y-12149549D02*
X11535556Y-12349549D01*
X11535556Y-12159073D02*
X11554603Y-12149549D01*
X11592698Y-12149549D01*
X11611746Y-12159073D01*
X11621270Y-12168597D01*
X11630794Y-12187644D01*
X11630794Y-12244787D01*
X11621270Y-12263835D01*
X11611746Y-12273358D01*
X11592698Y-12282882D01*
X11554603Y-12282882D01*
X11535556Y-12273358D01*
X11716508Y-12263835D02*
X11726032Y-12273358D01*
X11716508Y-12282882D01*
X11706984Y-12273358D01*
X11716508Y-12263835D01*
X11716508Y-12282882D01*
X11716508Y-12159073D02*
X11726032Y-12168597D01*
X11716508Y-12178120D01*
X11706984Y-12168597D01*
X11716508Y-12159073D01*
X11716508Y-12178120D01*
M02*
