%TF.GenerationSoftware,KiCad,Pcbnew,(6.0.8)*%
%TF.CreationDate,2022-10-18T22:13:00+02:00*%
%TF.ProjectId,test_project_1,74657374-5f70-4726-9f6a-6563745f312e,rev?*%
%TF.SameCoordinates,Original*%
%TF.FileFunction,Legend,Top*%
%TF.FilePolarity,Positive*%
%FSLAX46Y46*%
G04 Gerber Fmt 4.6, Leading zero omitted, Abs format (unit mm)*
G04 Created by KiCad (PCBNEW (6.0.8)) date 2022-10-18 22:13:00*
%MOMM*%
%LPD*%
G01*
G04 APERTURE LIST*
%ADD10C,0.150000*%
%ADD11C,0.120000*%
G04 APERTURE END LIST*
D10*
%TO.C,J_N7*%
X157904380Y-96742095D02*
X158618666Y-96742095D01*
X158761523Y-96789714D01*
X158856761Y-96884952D01*
X158904380Y-97027809D01*
X158904380Y-97123047D01*
X158999619Y-96504000D02*
X158999619Y-95742095D01*
X158904380Y-95504000D02*
X157904380Y-95504000D01*
X158904380Y-94932571D01*
X157904380Y-94932571D01*
X157904380Y-94551619D02*
X157904380Y-93884952D01*
X158904380Y-94313523D01*
%TO.C,J_N1*%
X123729904Y-105326380D02*
X123729904Y-106040666D01*
X123682285Y-106183523D01*
X123587047Y-106278761D01*
X123444190Y-106326380D01*
X123348952Y-106326380D01*
X123968000Y-106421619D02*
X124729904Y-106421619D01*
X124968000Y-106326380D02*
X124968000Y-105326380D01*
X125539428Y-106326380D01*
X125539428Y-105326380D01*
X126539428Y-106326380D02*
X125968000Y-106326380D01*
X126253714Y-106326380D02*
X126253714Y-105326380D01*
X126158476Y-105469238D01*
X126063238Y-105564476D01*
X125968000Y-105612095D01*
%TO.C,J_P2*%
X105719714Y-105160380D02*
X105719714Y-105874666D01*
X105672095Y-106017523D01*
X105576857Y-106112761D01*
X105434000Y-106160380D01*
X105338761Y-106160380D01*
X105957809Y-106255619D02*
X106719714Y-106255619D01*
X106957809Y-106160380D02*
X106957809Y-105160380D01*
X107338761Y-105160380D01*
X107434000Y-105208000D01*
X107481619Y-105255619D01*
X107529238Y-105350857D01*
X107529238Y-105493714D01*
X107481619Y-105588952D01*
X107434000Y-105636571D01*
X107338761Y-105684190D01*
X106957809Y-105684190D01*
X107910190Y-105255619D02*
X107957809Y-105208000D01*
X108053047Y-105160380D01*
X108291142Y-105160380D01*
X108386380Y-105208000D01*
X108434000Y-105255619D01*
X108481619Y-105350857D01*
X108481619Y-105446095D01*
X108434000Y-105588952D01*
X107862571Y-106160380D01*
X108481619Y-106160380D01*
%TO.C,J_P8*%
X147629714Y-105326380D02*
X147629714Y-106040666D01*
X147582095Y-106183523D01*
X147486857Y-106278761D01*
X147344000Y-106326380D01*
X147248761Y-106326380D01*
X147867809Y-106421619D02*
X148629714Y-106421619D01*
X148867809Y-106326380D02*
X148867809Y-105326380D01*
X149248761Y-105326380D01*
X149344000Y-105374000D01*
X149391619Y-105421619D01*
X149439238Y-105516857D01*
X149439238Y-105659714D01*
X149391619Y-105754952D01*
X149344000Y-105802571D01*
X149248761Y-105850190D01*
X148867809Y-105850190D01*
X150010666Y-105754952D02*
X149915428Y-105707333D01*
X149867809Y-105659714D01*
X149820190Y-105564476D01*
X149820190Y-105516857D01*
X149867809Y-105421619D01*
X149915428Y-105374000D01*
X150010666Y-105326380D01*
X150201142Y-105326380D01*
X150296380Y-105374000D01*
X150344000Y-105421619D01*
X150391619Y-105516857D01*
X150391619Y-105564476D01*
X150344000Y-105659714D01*
X150296380Y-105707333D01*
X150201142Y-105754952D01*
X150010666Y-105754952D01*
X149915428Y-105802571D01*
X149867809Y-105850190D01*
X149820190Y-105945428D01*
X149820190Y-106135904D01*
X149867809Y-106231142D01*
X149915428Y-106278761D01*
X150010666Y-106326380D01*
X150201142Y-106326380D01*
X150296380Y-106278761D01*
X150344000Y-106231142D01*
X150391619Y-106135904D01*
X150391619Y-105945428D01*
X150344000Y-105850190D01*
X150296380Y-105802571D01*
X150201142Y-105754952D01*
%TO.C,U1*%
X136906095Y-86728380D02*
X136906095Y-87537904D01*
X136953714Y-87633142D01*
X137001333Y-87680761D01*
X137096571Y-87728380D01*
X137287047Y-87728380D01*
X137382285Y-87680761D01*
X137429904Y-87633142D01*
X137477523Y-87537904D01*
X137477523Y-86728380D01*
X138477523Y-87728380D02*
X137906095Y-87728380D01*
X138191809Y-87728380D02*
X138191809Y-86728380D01*
X138096571Y-86871238D01*
X138001333Y-86966476D01*
X137906095Y-87014095D01*
%TO.C,RB1*%
X138525333Y-96718380D02*
X138192000Y-96242190D01*
X137953904Y-96718380D02*
X137953904Y-95718380D01*
X138334857Y-95718380D01*
X138430095Y-95766000D01*
X138477714Y-95813619D01*
X138525333Y-95908857D01*
X138525333Y-96051714D01*
X138477714Y-96146952D01*
X138430095Y-96194571D01*
X138334857Y-96242190D01*
X137953904Y-96242190D01*
X139287238Y-96194571D02*
X139430095Y-96242190D01*
X139477714Y-96289809D01*
X139525333Y-96385047D01*
X139525333Y-96527904D01*
X139477714Y-96623142D01*
X139430095Y-96670761D01*
X139334857Y-96718380D01*
X138953904Y-96718380D01*
X138953904Y-95718380D01*
X139287238Y-95718380D01*
X139382476Y-95766000D01*
X139430095Y-95813619D01*
X139477714Y-95908857D01*
X139477714Y-96004095D01*
X139430095Y-96099333D01*
X139382476Y-96146952D01*
X139287238Y-96194571D01*
X138953904Y-96194571D01*
X140477714Y-96718380D02*
X139906285Y-96718380D01*
X140192000Y-96718380D02*
X140192000Y-95718380D01*
X140096761Y-95861238D01*
X140001523Y-95956476D01*
X139906285Y-96004095D01*
%TO.C,RA1*%
X135548761Y-96718380D02*
X135215428Y-96242190D01*
X134977333Y-96718380D02*
X134977333Y-95718380D01*
X135358285Y-95718380D01*
X135453523Y-95766000D01*
X135501142Y-95813619D01*
X135548761Y-95908857D01*
X135548761Y-96051714D01*
X135501142Y-96146952D01*
X135453523Y-96194571D01*
X135358285Y-96242190D01*
X134977333Y-96242190D01*
X135929714Y-96432666D02*
X136405904Y-96432666D01*
X135834476Y-96718380D02*
X136167809Y-95718380D01*
X136501142Y-96718380D01*
X137358285Y-96718380D02*
X136786857Y-96718380D01*
X137072571Y-96718380D02*
X137072571Y-95718380D01*
X136977333Y-95861238D01*
X136882095Y-95956476D01*
X136786857Y-96004095D01*
%TO.C,J1*%
X131956666Y-98512380D02*
X131956666Y-99226666D01*
X131909047Y-99369523D01*
X131813809Y-99464761D01*
X131670952Y-99512380D01*
X131575714Y-99512380D01*
X132956666Y-99512380D02*
X132385238Y-99512380D01*
X132670952Y-99512380D02*
X132670952Y-98512380D01*
X132575714Y-98655238D01*
X132480476Y-98750476D01*
X132385238Y-98798095D01*
%TO.C,C2*%
X144359333Y-100081142D02*
X144311714Y-100128761D01*
X144168857Y-100176380D01*
X144073619Y-100176380D01*
X143930761Y-100128761D01*
X143835523Y-100033523D01*
X143787904Y-99938285D01*
X143740285Y-99747809D01*
X143740285Y-99604952D01*
X143787904Y-99414476D01*
X143835523Y-99319238D01*
X143930761Y-99224000D01*
X144073619Y-99176380D01*
X144168857Y-99176380D01*
X144311714Y-99224000D01*
X144359333Y-99271619D01*
X144740285Y-99271619D02*
X144787904Y-99224000D01*
X144883142Y-99176380D01*
X145121238Y-99176380D01*
X145216476Y-99224000D01*
X145264095Y-99271619D01*
X145311714Y-99366857D01*
X145311714Y-99462095D01*
X145264095Y-99604952D01*
X144692666Y-100176380D01*
X145311714Y-100176380D01*
%TO.C,C1*%
X144359333Y-93419142D02*
X144311714Y-93466761D01*
X144168857Y-93514380D01*
X144073619Y-93514380D01*
X143930761Y-93466761D01*
X143835523Y-93371523D01*
X143787904Y-93276285D01*
X143740285Y-93085809D01*
X143740285Y-92942952D01*
X143787904Y-92752476D01*
X143835523Y-92657238D01*
X143930761Y-92562000D01*
X144073619Y-92514380D01*
X144168857Y-92514380D01*
X144311714Y-92562000D01*
X144359333Y-92609619D01*
X145311714Y-93514380D02*
X144740285Y-93514380D01*
X145026000Y-93514380D02*
X145026000Y-92514380D01*
X144930761Y-92657238D01*
X144835523Y-92752476D01*
X144740285Y-92800095D01*
D11*
%TO.C,J_N7*%
X159452000Y-96834000D02*
X159452000Y-95504000D01*
X162052000Y-96834000D02*
X162052000Y-94174000D01*
X162112000Y-96834000D02*
X162112000Y-94174000D01*
X162052000Y-94174000D02*
X162112000Y-94174000D01*
X162052000Y-96834000D02*
X162112000Y-96834000D01*
X160782000Y-96834000D02*
X159452000Y-96834000D01*
%TO.C,J_N1*%
X123638000Y-106874000D02*
X124968000Y-106874000D01*
X123638000Y-109474000D02*
X126298000Y-109474000D01*
X123638000Y-109534000D02*
X126298000Y-109534000D01*
X126298000Y-109474000D02*
X126298000Y-109534000D01*
X123638000Y-109474000D02*
X123638000Y-109534000D01*
X123638000Y-108204000D02*
X123638000Y-106874000D01*
%TO.C,J_P2*%
X108264000Y-104708000D02*
X106934000Y-104708000D01*
X108264000Y-102108000D02*
X105604000Y-102108000D01*
X108264000Y-102048000D02*
X105604000Y-102048000D01*
X105604000Y-102108000D02*
X105604000Y-102048000D01*
X108264000Y-102108000D02*
X108264000Y-102048000D01*
X108264000Y-103378000D02*
X108264000Y-104708000D01*
%TO.C,J_P8*%
X147514000Y-106874000D02*
X148844000Y-106874000D01*
X147514000Y-109474000D02*
X150174000Y-109474000D01*
X147514000Y-109534000D02*
X150174000Y-109534000D01*
X150174000Y-109474000D02*
X150174000Y-109534000D01*
X147514000Y-109474000D02*
X147514000Y-109534000D01*
X147514000Y-108204000D02*
X147514000Y-106874000D01*
%TO.C,U1*%
X137668000Y-88116000D02*
X139618000Y-88116000D01*
X137668000Y-93236000D02*
X139618000Y-93236000D01*
X137668000Y-88116000D02*
X134218000Y-88116000D01*
X137668000Y-93236000D02*
X135718000Y-93236000D01*
%TO.C,RB1*%
X139038359Y-94616000D02*
X139345641Y-94616000D01*
X139038359Y-95376000D02*
X139345641Y-95376000D01*
%TO.C,RA1*%
X135990359Y-95376000D02*
X136297641Y-95376000D01*
X135990359Y-94616000D02*
X136297641Y-94616000D01*
%TO.C,J1*%
X135890000Y-100390000D02*
X135890000Y-97730000D01*
X133290000Y-100390000D02*
X133290000Y-99060000D01*
X135890000Y-97730000D02*
X141030000Y-97730000D01*
X134620000Y-100390000D02*
X133290000Y-100390000D01*
X135890000Y-100390000D02*
X141030000Y-100390000D01*
X141030000Y-100390000D02*
X141030000Y-97730000D01*
%TO.C,C2*%
X144787252Y-97309000D02*
X144264748Y-97309000D01*
X144787252Y-98779000D02*
X144264748Y-98779000D01*
%TO.C,C1*%
X144264748Y-95477000D02*
X144787252Y-95477000D01*
X144264748Y-94007000D02*
X144787252Y-94007000D01*
%TD*%
M02*
