%TF.GenerationSoftware,KiCad,Pcbnew,(6.0.8)*%
%TF.CreationDate,2022-10-18T22:13:00+02:00*%
%TF.ProjectId,test_project_1,74657374-5f70-4726-9f6a-6563745f312e,rev?*%
%TF.SameCoordinates,Original*%
%TF.FileFunction,Copper,L1,Top*%
%TF.FilePolarity,Positive*%
%FSLAX46Y46*%
G04 Gerber Fmt 4.6, Leading zero omitted, Abs format (unit mm)*
G04 Created by KiCad (PCBNEW (6.0.8)) date 2022-10-18 22:13:00*
%MOMM*%
%LPD*%
G01*
G04 APERTURE LIST*
G04 Aperture macros list*
%AMRoundRect*
0 Rectangle with rounded corners*
0 $1 Rounding radius*
0 $2 $3 $4 $5 $6 $7 $8 $9 X,Y pos of 4 corners*
0 Add a 4 corners polygon primitive as box body*
4,1,4,$2,$3,$4,$5,$6,$7,$8,$9,$2,$3,0*
0 Add four circle primitives for the rounded corners*
1,1,$1+$1,$2,$3*
1,1,$1+$1,$4,$5*
1,1,$1+$1,$6,$7*
1,1,$1+$1,$8,$9*
0 Add four rect primitives between the rounded corners*
20,1,$1+$1,$2,$3,$4,$5,0*
20,1,$1+$1,$4,$5,$6,$7,0*
20,1,$1+$1,$6,$7,$8,$9,0*
20,1,$1+$1,$8,$9,$2,$3,0*%
G04 Aperture macros list end*
%TA.AperFunction,ComponentPad*%
%ADD10R,1.700000X1.700000*%
%TD*%
%TA.AperFunction,SMDPad,CuDef*%
%ADD11RoundRect,0.150000X-0.825000X-0.150000X0.825000X-0.150000X0.825000X0.150000X-0.825000X0.150000X0*%
%TD*%
%TA.AperFunction,SMDPad,CuDef*%
%ADD12RoundRect,0.135000X-0.135000X-0.185000X0.135000X-0.185000X0.135000X0.185000X-0.135000X0.185000X0*%
%TD*%
%TA.AperFunction,ComponentPad*%
%ADD13O,1.700000X1.700000*%
%TD*%
%TA.AperFunction,SMDPad,CuDef*%
%ADD14RoundRect,0.250000X0.250000X0.475000X-0.250000X0.475000X-0.250000X-0.475000X0.250000X-0.475000X0*%
%TD*%
%TA.AperFunction,SMDPad,CuDef*%
%ADD15RoundRect,0.250000X-0.250000X-0.475000X0.250000X-0.475000X0.250000X0.475000X-0.250000X0.475000X0*%
%TD*%
%TA.AperFunction,Conductor*%
%ADD16C,0.250000*%
%TD*%
G04 APERTURE END LIST*
D10*
%TO.P,J_N7,1,Pin_1*%
%TO.N,Net-(J_P8-Pad1)*%
X160782000Y-95504000D03*
%TD*%
%TO.P,J_N1,1,Pin_1*%
%TO.N,GND*%
X124968000Y-108204000D03*
%TD*%
%TO.P,J_P2,1,Pin_1*%
%TO.N,+12V*%
X106934000Y-103378000D03*
%TD*%
%TO.P,J_P8,1,Pin_1*%
%TO.N,Net-(J_P8-Pad1)*%
X148844000Y-108204000D03*
%TD*%
D11*
%TO.P,U1,1,GND*%
%TO.N,GND*%
X135193000Y-88771000D03*
%TO.P,U1,2,TR*%
%TO.N,Net-(C1-Pad1)*%
X135193000Y-90041000D03*
%TO.P,U1,3,Q*%
%TO.N,Net-(J1-Pad3)*%
X135193000Y-91311000D03*
%TO.P,U1,4,R*%
%TO.N,+12V*%
X135193000Y-92581000D03*
%TO.P,U1,5,CV*%
%TO.N,Net-(C2-Pad1)*%
X140143000Y-92581000D03*
%TO.P,U1,6,THR*%
%TO.N,Net-(C1-Pad1)*%
X140143000Y-91311000D03*
%TO.P,U1,7,DIS*%
%TO.N,Net-(RA1-Pad2)*%
X140143000Y-90041000D03*
%TO.P,U1,8,VCC*%
%TO.N,+12V*%
X140143000Y-88771000D03*
%TD*%
D12*
%TO.P,RB1,1*%
%TO.N,Net-(RA1-Pad2)*%
X138682000Y-94996000D03*
%TO.P,RB1,2*%
%TO.N,Net-(C1-Pad1)*%
X139702000Y-94996000D03*
%TD*%
%TO.P,RA1,2*%
%TO.N,Net-(RA1-Pad2)*%
X136654000Y-94996000D03*
%TO.P,RA1,1*%
%TO.N,+12V*%
X135634000Y-94996000D03*
%TD*%
D13*
%TO.P,J1,3,Pin_3*%
%TO.N,Net-(J1-Pad3)*%
X139700000Y-99060000D03*
%TO.P,J1,2,Pin_2*%
%TO.N,GND*%
X137160000Y-99060000D03*
D10*
%TO.P,J1,1,Pin_1*%
%TO.N,+12V*%
X134620000Y-99060000D03*
%TD*%
D14*
%TO.P,C2,1*%
%TO.N,Net-(C2-Pad1)*%
X145476000Y-98044000D03*
%TO.P,C2,2*%
%TO.N,GND*%
X143576000Y-98044000D03*
%TD*%
D15*
%TO.P,C1,1*%
%TO.N,Net-(C1-Pad1)*%
X143576000Y-94742000D03*
%TO.P,C1,2*%
%TO.N,GND*%
X145476000Y-94742000D03*
%TD*%
D16*
%TO.N,Net-(J_P8-Pad1)*%
X159512000Y-95504000D02*
X160782000Y-95504000D01*
X148844000Y-106172000D02*
X159512000Y-95504000D01*
X148844000Y-108204000D02*
X148844000Y-106172000D01*
%TO.N,GND*%
X124968000Y-108204000D02*
X131572000Y-101600000D01*
X131572000Y-100584000D02*
X131572000Y-92710000D01*
X131572000Y-101600000D02*
X131572000Y-100584000D01*
X131572000Y-101346000D02*
X131572000Y-100584000D01*
%TO.N,+12V*%
X142369000Y-88771000D02*
X140143000Y-88771000D01*
X142748000Y-88392000D02*
X142369000Y-88771000D01*
X133604000Y-86106000D02*
X141224000Y-86106000D01*
X142748000Y-87630000D02*
X142748000Y-88392000D01*
X113284000Y-106426000D02*
X133604000Y-86106000D01*
X108712000Y-106426000D02*
X113284000Y-106426000D01*
X141224000Y-86106000D02*
X142748000Y-87630000D01*
X106934000Y-104648000D02*
X108712000Y-106426000D01*
X106934000Y-103378000D02*
X106934000Y-104648000D01*
%TO.N,GND*%
X133733000Y-88771000D02*
X135193000Y-88771000D01*
X133096000Y-89408000D02*
X133733000Y-88771000D01*
X133096000Y-91186000D02*
X133096000Y-89408000D01*
X131572000Y-92710000D02*
X133096000Y-91186000D01*
X132080000Y-101854000D02*
X131572000Y-101346000D01*
X141224000Y-101854000D02*
X132080000Y-101854000D01*
X141986000Y-101092000D02*
X141224000Y-101854000D01*
X141986000Y-97028000D02*
X141986000Y-101092000D01*
%TO.N,+12V*%
X138051000Y-88771000D02*
X140143000Y-88771000D01*
X137414000Y-89408000D02*
X138051000Y-88771000D01*
X133858000Y-89408000D02*
X137414000Y-89408000D01*
X134112000Y-90678000D02*
X133604000Y-90170000D01*
X136906000Y-91948000D02*
X136906000Y-90932000D01*
X133604000Y-89662000D02*
X133858000Y-89408000D01*
X136273000Y-92581000D02*
X136906000Y-91948000D01*
X136906000Y-90932000D02*
X136652000Y-90678000D01*
X136652000Y-90678000D02*
X134112000Y-90678000D01*
X135193000Y-92581000D02*
X136273000Y-92581000D01*
X133604000Y-90170000D02*
X133604000Y-89662000D01*
%TO.N,Net-(C1-Pad1)*%
X137797000Y-90041000D02*
X135193000Y-90041000D01*
X138430000Y-89408000D02*
X137797000Y-90041000D01*
X141224000Y-89408000D02*
X138430000Y-89408000D01*
X141732000Y-89916000D02*
X141224000Y-89408000D01*
X141732000Y-90932000D02*
X141732000Y-89916000D01*
X141353000Y-91311000D02*
X141732000Y-90932000D01*
X140143000Y-91311000D02*
X141353000Y-91311000D01*
%TO.N,Net-(RA1-Pad2)*%
X138559000Y-90041000D02*
X140143000Y-90041000D01*
X137668000Y-90932000D02*
X138559000Y-90041000D01*
X137668000Y-94996000D02*
X137668000Y-90932000D01*
X137668000Y-94996000D02*
X138682000Y-94996000D01*
X136654000Y-94996000D02*
X137668000Y-94996000D01*
%TO.N,Net-(C2-Pad1)*%
X145667000Y-92581000D02*
X140143000Y-92581000D01*
X146558000Y-93472000D02*
X145667000Y-92581000D01*
X146558000Y-97536000D02*
X146558000Y-93472000D01*
X146050000Y-98044000D02*
X146558000Y-97536000D01*
X145476000Y-98044000D02*
X146050000Y-98044000D01*
%TO.N,Net-(C1-Pad1)*%
X139702000Y-94236000D02*
X138430000Y-92964000D01*
X138430000Y-92964000D02*
X138430000Y-91690000D01*
X138430000Y-91690000D02*
X138809000Y-91311000D01*
X139702000Y-94996000D02*
X139702000Y-94236000D01*
%TO.N,Net-(J1-Pad3)*%
X134241000Y-91311000D02*
X135193000Y-91311000D01*
X132080000Y-93472000D02*
X134241000Y-91311000D01*
X132080000Y-101092000D02*
X132080000Y-93472000D01*
X132334000Y-101346000D02*
X132080000Y-101092000D01*
X138938000Y-101346000D02*
X132334000Y-101346000D01*
X139700000Y-100584000D02*
X138938000Y-101346000D01*
X139700000Y-99060000D02*
X139700000Y-100584000D01*
%TO.N,GND*%
X137160000Y-97790000D02*
X137160000Y-99060000D01*
X137922000Y-97028000D02*
X137160000Y-97790000D01*
X141986000Y-97028000D02*
X137922000Y-97028000D01*
X143002000Y-98044000D02*
X141986000Y-97028000D01*
X143576000Y-98044000D02*
X143002000Y-98044000D01*
X145476000Y-96078000D02*
X145476000Y-94996000D01*
X145034000Y-96520000D02*
X145476000Y-96078000D01*
X144272000Y-96520000D02*
X145034000Y-96520000D01*
X143576000Y-98044000D02*
X143576000Y-97216000D01*
X143576000Y-97216000D02*
X144272000Y-96520000D01*
%TO.N,Net-(C1-Pad1)*%
X140143000Y-91311000D02*
X138809000Y-91311000D01*
X141986000Y-94996000D02*
X143576000Y-94996000D01*
X139702000Y-94996000D02*
X141986000Y-94996000D01*
%TO.N,+12V*%
X134620000Y-95504000D02*
X135128000Y-94996000D01*
X134620000Y-97028000D02*
X134620000Y-95504000D01*
X135128000Y-94996000D02*
X135634000Y-94996000D01*
X133096000Y-95504000D02*
X133096000Y-93726000D01*
X134620000Y-97028000D02*
X133096000Y-95504000D01*
X134620000Y-99060000D02*
X134620000Y-97028000D01*
X133096000Y-93726000D02*
X134241000Y-92581000D01*
X134241000Y-92581000D02*
X135193000Y-92581000D01*
%TD*%
M02*
